<?xml version="1.0" encoding="UTF-8"?>
<svg version="1.1" xmlns="http://www.w3.org/2000/svg" width="1536" height="1024">
<path d="M0 0 C1.62544235 0.00405602 1.62544235 0.00405602 3.28372192 0.00819397 C5.05198586 0.02054329 5.05198586 0.02054329 6.85597229 0.03314209 C8.10527527 0.03793076 9.35457825 0.04271942 10.64173889 0.0476532 C14.06120816 0.06229427 17.48057466 0.08171384 20.89999652 0.10421848 C23.03799214 0.1181039 25.17599161 0.13073316 27.31399727 0.14296722 C34.00851829 0.18154595 40.70299497 0.22413478 47.39745086 0.27274251 C55.11623868 0.32878372 62.8349525 0.37180351 70.55387825 0.40342355 C76.52778158 0.42865734 82.50154774 0.46526741 88.4753328 0.51050925 C92.04021177 0.53726839 95.60496725 0.55928745 99.16993523 0.56952667 C103.14619475 0.58133794 107.1220555 0.61673961 111.09815979 0.65423584 C112.86338737 0.65443977 112.86338737 0.65443977 114.66427612 0.65464783 C125.10658274 0.78904724 125.10658274 0.78904724 129.54176331 4.10247803 C134.85820786 9.80625185 134.09890112 16.03699734 134.04296875 23.50343323 C134.04686306 24.88655932 134.05250456 26.26968141 134.05973965 27.65279406 C134.07449583 31.44889058 134.06431205 35.24457233 134.05000293 39.04065549 C134.03889671 43.13704872 134.0508351 47.23338359 134.05984497 51.32977295 C134.07378594 59.35586614 134.06621297 67.38180208 134.05116939 75.40788779 C134.03430117 84.76454322 134.03752102 94.12115955 134.04126347 103.47782549 C134.04714455 120.18631885 134.03296561 136.89473693 134.00831604 153.60321045 C133.9844369 169.79139027 133.97729499 185.97946931 133.98780823 202.16766357 C133.99924284 219.80608802 134.00111288 237.44446582 133.98671013 255.08288974 C133.98518438 256.96787973 133.98366402 258.85286972 133.98214912 260.73785973 C133.98139131 261.66520285 133.9806335 262.59254598 133.97985272 263.54799042 C133.97512618 270.05781157 133.97695003 276.56761181 133.98121452 283.07743263 C133.98616505 291.02807842 133.98005253 298.97862927 133.96032023 306.92925344 C133.950512 310.97995464 133.94527199 315.03051197 133.95321274 319.08122063 C134.0081593 350.24504474 134.0081593 350.24504474 130.54176331 364.10247803 C129.88176331 364.10247803 129.22176331 364.10247803 128.54176331 364.10247803 C128.29426331 365.21622803 128.04676331 366.32997803 127.79176331 367.47747803 C126.54176331 371.10247803 126.54176331 371.10247803 124.54176331 372.28997803 C123.55176331 372.69216553 123.55176331 372.69216553 122.54176331 373.10247803 C122.23238831 373.72122803 121.92301331 374.33997803 121.60426331 374.97747803 C120.17550084 377.83500296 118.04739626 379.17506806 115.54176331 381.10247803 C115.21176331 381.76247803 114.88176331 382.42247803 114.54176331 383.10247803 C113.58270081 383.53560303 113.58270081 383.53560303 112.60426331 383.97747803 C110.38476899 384.92421868 110.38476899 384.92421868 109.60426331 387.10247803 C108.14607423 389.84730452 106.36626632 390.01613071 103.54176331 391.10247803 C103.21176331 392.09247803 102.88176331 393.08247803 102.54176331 394.10247803 C101.10426331 395.78997803 101.10426331 395.78997803 99.54176331 397.10247803 C98.88176331 397.10247803 98.22176331 397.10247803 97.54176331 397.10247803 C97.21176331 398.09247803 96.88176331 399.08247803 96.54176331 400.10247803 C95.55176331 400.43247803 94.56176331 400.76247803 93.54176331 401.10247803 C92.33294234 403.10264269 92.33294234 403.10264269 91.54176331 405.10247803 C92.37707581 404.63841553 92.37707581 404.63841553 93.22926331 404.16497803 C95.54176331 403.10247803 95.54176331 403.10247803 98.16676331 402.72747803 C100.71604943 402.34410383 100.71604943 402.34410383 101.85426331 400.03997803 C102.08113831 399.40060303 102.30801331 398.76122803 102.54176331 398.10247803 C103.86176331 398.10247803 105.18176331 398.10247803 106.54176331 398.10247803 C106.80988831 397.48372803 107.07801331 396.86497803 107.35426331 396.22747803 C108.54176331 394.10247803 108.54176331 394.10247803 111.54176331 392.10247803 C112.28426331 391.29810303 112.28426331 391.29810303 113.04176331 390.47747803 C114.54176331 389.10247803 114.54176331 389.10247803 117.54176331 389.10247803 C117.54176331 388.44247803 117.54176331 387.78247803 117.54176331 387.10247803 C119.82810397 385.52121532 122.1078863 384.04512332 124.47926331 382.60247803 C129.21341709 380.05668552 129.21341709 380.05668552 132.54176331 376.10247803 C135.10426331 375.47747803 135.10426331 375.47747803 137.54176331 375.10247803 C137.87176331 373.78247803 138.20176331 372.46247803 138.54176331 371.10247803 C140.19176331 370.77247803 141.84176331 370.44247803 143.54176331 370.10247803 C143.63586487 369.48759521 143.72996643 368.8727124 143.82691956 368.23919678 C144.54176331 366.10247803 144.54176331 366.10247803 146.03785706 364.87200928 C154.87179134 360.51725294 164.34584033 360.95385121 174.00991821 360.96203613 C175.12283861 360.95906501 176.23575901 360.95609389 177.38240427 360.95303273 C181.08925892 360.94440254 184.79608107 360.94284235 188.50294495 360.94134521 C191.1695877 360.93671323 193.83622759 360.93170813 196.50286865 360.92630005 C203.72992136 360.91277594 210.95696848 360.90670235 218.18403172 360.90228939 C222.70055396 360.89951901 227.21707409 360.89528045 231.73359489 360.89078522 C244.25238059 360.87860428 256.7711646 360.86830007 269.28995609 360.86491013 C270.08953109 360.86469056 270.88910608 360.86447099 271.71291062 360.86424477 C272.9150192 360.86391736 272.9150192 360.86391736 274.14141279 360.86358333 C275.76517872 360.86313987 277.38894465 360.86269331 279.01271057 360.86224365 C279.81814198 360.86202222 280.62357339 360.86180079 281.45341181 360.86157265 C294.51557167 360.85762125 307.57767586 360.84015156 320.63981421 360.81688413 C334.06811382 360.7931583 347.49638549 360.78070785 360.9247064 360.77954221 C368.45735333 360.77862657 375.98992754 360.77290153 383.5225544 360.7547226 C389.93291837 360.73930553 396.3431871 360.73421091 402.75356609 360.7424607 C406.0215879 360.74636046 409.28937838 360.7438296 412.55738449 360.73140335 C416.10528504 360.71870439 419.65269485 360.72454993 423.20059204 360.73498535 C424.22589321 360.72692895 425.25119437 360.71887254 426.30756527 360.710572 C432.35688372 360.75213014 438.10639301 361.223896 443.54176331 364.10247803 C449.584072 370.2464203 449.1866089 378.32190702 449.18519592 386.41914368 C449.16960889 388.15864954 449.15302383 389.89814671 449.13551331 391.63763428 C449.13379964 393.44406555 449.13387049 395.25049932 449.13563538 397.05693054 C449.13398773 400.83025121 449.11539091 404.60297376 449.08375549 408.37615967 C449.04405126 413.19676233 449.03971717 418.01658417 449.04721832 422.83731937 C449.05029709 426.5632789 449.03813577 430.28906506 449.02108765 434.01498222 C449.01409015 435.7918635 449.01092914 437.56876441 449.01177979 439.34565926 C449.00996897 441.83404768 448.9884799 444.32152411 448.96168518 446.80975342 C448.96461578 447.53361237 448.96754639 448.25747131 448.9705658 449.00326538 C448.88380193 454.2623335 447.59233887 458.25805057 445.54176331 463.10247803 C444.88176331 463.10247803 444.22176331 463.10247803 443.54176331 463.10247803 C443.27750549 463.70575928 443.01324768 464.30904053 442.74098206 464.93060303 C441.48421257 467.20670673 440.38736168 468.27066236 438.35426331 469.85247803 C435.55973883 472.13573815 433.23546296 474.52478916 430.91676331 477.28997803 C428.35633222 480.30865181 426.04810429 482.20715858 422.54176331 484.10247803 C421.16865623 485.3948141 419.83141507 486.72684948 418.54176331 488.10247803 C413.44727379 493.19696754 408.23643595 497.89942251 402.41676331 502.16497803 C399.15827942 504.57124305 396.37239716 507.19735381 393.54176331 510.10247803 C388.03352155 515.10247803 388.03352155 515.10247803 385.54176331 515.10247803 C385.54176331 515.76247803 385.54176331 516.42247803 385.54176331 517.10247803 C384.08082581 518.61029053 384.08082581 518.61029053 382.16676331 520.22747803 C381.54027893 520.76630615 380.91379456 521.30513428 380.26832581 521.86029053 C378.54176331 523.10247803 378.54176331 523.10247803 376.54176331 523.10247803 C376.54176331 523.76247803 376.54176331 524.42247803 376.54176331 525.10247803 C375.08082581 526.61029053 375.08082581 526.61029053 373.16676331 528.22747803 C372.54027893 528.76630615 371.91379456 529.30513428 371.26832581 529.86029053 C369.54176331 531.10247803 369.54176331 531.10247803 367.54176331 531.10247803 C367.54176331 531.76247803 367.54176331 532.42247803 367.54176331 533.10247803 C365.07932676 535.64958288 362.26047373 537.83475869 359.54176331 540.10247803 C358.13604065 541.30323975 358.13604065 541.30323975 356.70191956 542.52825928 C355.74156799 543.33650146 354.78121643 544.14474365 353.79176331 544.97747803 C352.88941956 545.7380249 351.98707581 546.49857178 351.05738831 547.28216553 C346.93211386 550.26722437 343.4052824 550.22757848 338.38782978 550.22831917 C337.11687688 550.23092692 335.84592398 550.23353466 334.53645736 550.23622143 C333.12304947 550.23405923 331.70964173 550.23180257 330.29623413 550.22946167 C328.79679711 550.23061353 327.29736037 550.2322015 325.79792422 550.23418891 C321.67084175 550.23837424 317.54378233 550.236295 313.41669977 550.2332027 C308.96703265 550.23094518 304.51736957 550.23443025 300.06770325 550.23718262 C291.34219979 550.24163781 282.61670492 550.24066428 273.89120112 550.23776998 C266.78910699 550.23551193 259.68701527 550.23520518 252.58492088 550.23629379 C251.57412334 550.23644703 250.5633258 550.23660026 249.52189803 550.23675814 C247.46822844 550.23707787 245.41455886 550.23740209 243.36088928 550.23773073 C224.07885119 550.24058556 204.79681785 550.23730002 185.51478054 550.23193036 C169.01229779 550.22747652 152.50982209 550.22822648 136.00733948 550.23284912 C116.82702143 550.2382194 97.64670757 550.24029592 78.46638888 550.23723686 C76.41383819 550.23691834 74.3612875 550.23660396 72.3087368 550.23629379 C71.29900609 550.23613952 70.28927537 550.23598524 69.24894676 550.23582629 C62.17584926 550.23496741 55.10275444 550.23641069 48.02965736 550.23877335 C39.37874541 550.24159947 30.72784251 550.24077505 22.07693157 550.2354926 C17.67289712 550.23289094 13.26887766 550.23178918 8.86484337 550.23514175 C-6.36017471 550.24562712 -21.58182239 550.24838993 -36.79974365 549.71939087 C-37.79416196 549.68903405 -38.78858027 549.65867724 -39.81313246 549.62740052 C-45.01977662 549.41083899 -49.51768361 548.77866754 -54.45823669 547.10247803 C-54.45823669 546.44247803 -54.45823669 545.78247803 -54.45823669 545.10247803 C-55.18011169 544.95810303 -55.90198669 544.81372803 -56.64573669 544.66497803 C-61.08921862 542.19637696 -62.77361209 538.83737589 -64.45823669 534.10247803 C-65.17405786 528.58362091 -65.10858187 523.10338631 -65.05278015 517.55162048 C-65.0542457 515.86281068 -65.05791451 514.17400161 -65.0635879 512.4852007 C-65.07280657 507.85787266 -65.05093113 503.23113856 -65.02390575 498.6038996 C-65.00021922 493.60772641 -65.00553548 488.6115737 -65.00733948 483.61535645 C-65.00655103 474.95904969 -64.98757172 466.30293671 -64.95632172 457.64668846 C-64.91118117 445.1095199 -64.89475398 432.57244044 -64.88543639 420.03520004 C-64.86961518 399.66474978 -64.83220573 379.2943999 -64.78050232 358.92401123 C-64.73046844 339.18769226 -64.68793431 319.45138636 -64.65745544 299.71502686 C-64.65557642 298.50104425 -64.6536974 297.28706164 -64.65176144 296.03629168 C-64.63141429 282.76499961 -64.61293674 269.49370526 -64.59536362 256.22240925 C-64.59066272 252.6943471 -64.58595526 249.16628496 -64.5812389 245.63822284 C-64.57814326 243.31132717 -64.5750794 240.98443146 -64.5720478 238.65753571 C-64.55268388 223.89687142 -64.52520725 209.13625343 -64.48889971 194.3756212 C-64.47068009 186.91078674 -64.45595186 179.44594671 -64.4423013 171.98110261 C-64.43306431 167.04297561 -64.42204288 162.10486853 -64.40632248 157.16675758 C-64.22883223 132.07778778 -64.22883223 132.07778778 -65.2208519 107.01622486 C-65.63644188 100.16442133 -65.68123842 93.30766709 -65.69847107 86.44476318 C-65.70835616 84.07382349 -65.73966405 81.70369216 -65.77073669 79.33294678 C-65.84118255 69.11670855 -65.39611065 59.32413189 -60.45823669 50.10247803 C-59.79823669 50.10247803 -59.13823669 50.10247803 -58.45823669 50.10247803 C-58.12823669 49.11247803 -57.79823669 48.12247803 -57.45823669 47.10247803 C-56.20823669 45.72747803 -56.20823669 45.72747803 -54.45823669 44.10247803 C-53.71573669 43.35997803 -52.97323669 42.61747803 -52.20823669 41.85247803 C-47.33323669 36.97747803 -47.33323669 36.97747803 -42.45823669 32.10247803 C-41.68479919 31.32710693 -41.68479919 31.32710693 -40.89573669 30.53607178 C-39.63420959 29.27797273 -38.359735 28.03288427 -37.08323669 26.78997803 C-34.42098716 24.15045415 -34.42098716 24.15045415 -32.14573669 21.22747803 C-29.52749348 18.00438749 -26.45967557 15.4431351 -23.30198669 12.76263428 C-21.30023485 11.05532284 -21.30023485 11.05532284 -19.39573669 8.47747803 C-14.02428573 1.89311878 -8.36379654 -0.03919319 0 0 Z " fill="#9AADBB" transform="translate(623.4582366943359,188.89752197265625)"/>
<path d="M0 0 C1.64222534 -0.01073296 1.64222534 -0.01073296 3.31762695 -0.02168274 C4.51921951 -0.02437164 5.72081207 -0.02706055 6.95881653 -0.02983093 C8.22412201 -0.03640213 9.48942749 -0.04297333 10.79307556 -0.04974365 C14.99129471 -0.07076805 19.18951415 -0.08114604 23.38777161 -0.09111023 C24.83477103 -0.0951587 26.28177027 -0.09927565 27.7287693 -0.10346031 C34.52898056 -0.12251019 41.32918098 -0.13674038 48.12941378 -0.14507228 C55.9694715 -0.1548376 63.80924635 -0.18113925 71.64920443 -0.22157317 C77.71473493 -0.25177782 83.78018456 -0.26654535 89.84578878 -0.26985329 C93.46565101 -0.27219928 97.08521099 -0.28109995 100.70499229 -0.30631447 C104.74811335 -0.33402261 108.79060643 -0.32975084 112.83381653 -0.32279968 C114.02528793 -0.33560974 115.21675934 -0.3484198 116.44433594 -0.36161804 C123.29996778 -0.3186894 127.94592035 0.32147582 133.71980286 4.14717102 C134.75190562 7.2434793 134.84918691 9.3733261 134.85681725 12.61925888 C134.86189179 13.76346888 134.86696633 14.90767889 134.87219465 16.08656192 C134.8726924 17.3492796 134.87319016 18.61199728 134.873703 19.91297913 C134.87771761 21.26351525 134.88215583 22.61405017 134.88698256 23.96458364 C134.89895391 27.68400665 134.9045978 31.40341668 134.90916371 35.12285519 C134.91511759 39.13116241 134.92672789 43.1394541 134.93745422 47.14775085 C134.9619818 56.83144599 134.97660521 66.51514627 134.98951429 76.19886291 C134.99322574 78.93327834 134.997199 81.66769327 135.00126696 84.40210819 C135.02650124 101.37758313 135.04855724 118.35305887 135.0609951 135.32854843 C135.06392486 139.26092787 135.06688651 143.19330727 135.06990051 147.12568665 C135.07064656 148.10307561 135.07139261 149.08046458 135.07216127 150.0874714 C135.08481875 165.9255964 135.11804704 181.76360924 135.15970235 197.6016818 C135.20210524 213.85703972 135.22568817 230.11234018 135.23091567 246.36775327 C135.23433148 255.49674333 135.2461068 264.62555804 135.2790184 273.75449371 C135.30699739 281.52801492 135.3180277 289.30132484 135.30682294 297.07489249 C135.30163088 301.04142133 135.30455808 305.00750757 135.32928848 308.97397232 C135.35174625 312.60623174 135.35106909 316.23772974 135.33208461 319.87000218 C135.32795223 321.80430688 135.34845603 323.73861594 135.3698715 325.6728065 C135.30385691 332.88275513 134.67662191 336.79900429 129.71980286 342.14717102 C127.62214661 344.18623352 127.62214661 344.18623352 125.65730286 345.77217102 C122.5899373 348.34554137 120.15630423 350.95451405 117.71980286 354.14717102 C116.06625321 355.82685227 114.39705868 357.49116122 112.71980286 359.14717102 C111.73012285 360.13535503 110.74122053 361.12431838 109.75300598 362.1139679 C102.73087056 369.13610331 95.70873515 376.15823873 88.68659973 383.18037415 C87.93624451 383.93181702 87.93624451 383.93181702 87.17073059 384.69844055 C85.78144079 386.08562644 84.38457853 387.46521591 82.98738098 388.84443665 C80.59811319 391.1993891 80.59811319 391.1993891 78.21980286 394.20967102 C75.88586101 396.95205269 73.52394769 398.91823538 70.71980286 401.14717102 C69.3659335 402.7971993 68.03302143 404.46460972 66.71980286 406.14717102 C65.0675654 407.82814304 63.39833147 409.49245133 61.71980286 411.14717102 C59.6967526 413.14494158 57.67662299 415.14563106 55.65730286 417.14717102 C55.14103333 417.65506165 54.62476379 418.16295227 54.09284973 418.68623352 C51.06783469 421.69198095 48.37390574 424.80195601 45.71980286 428.14717102 C44.05313619 429.48050435 42.38646952 430.81383769 40.71980286 432.14717102 C39.72980286 433.38467102 39.72980286 433.38467102 38.71980286 434.64717102 C36.71980286 437.14717102 36.71980286 437.14717102 34.40730286 438.95967102 C32.17975978 440.77278748 30.6052362 442.38009974 28.78230286 444.55342102 C23.83305172 450.27435396 18.41279835 455.52524985 13.03230286 460.83467102 C10.98375653 462.8564348 8.93868966 464.88162959 6.89558411 466.90888977 C5.54847351 468.23859802 5.54847351 468.23859802 4.17414856 469.59516907 C1.85120456 472.01054096 -0.21727416 474.50949241 -2.28019714 477.14717102 C-4.84269714 479.95967102 -4.84269714 479.95967102 -7.28019714 482.14717102 C-8.27019714 482.14717102 -9.26019714 482.14717102 -10.28019714 482.14717102 C-12.7380695 478.38148773 -12.55680763 474.620585 -12.5262928 470.28358078 C-12.52860049 469.48205302 -12.53090818 468.68052527 -12.5332858 467.85470879 C-12.53860584 465.15212597 -12.52958509 462.44977846 -12.52070618 459.74720764 C-12.52157783 457.79684908 -12.52332808 455.84649074 -12.52588451 453.89613366 C-12.53036988 448.52359843 -12.52233803 443.1511425 -12.51232839 437.77861738 C-12.50371329 431.9899492 -12.50661267 426.2012857 -12.50813293 420.41261292 C-12.50918302 410.37898952 -12.50289354 400.34539208 -12.49165726 390.31177521 C-12.47542191 375.80474729 -12.47019627 361.29773196 -12.46768127 346.79069594 C-12.46347903 323.25554256 -12.45000034 299.72040271 -12.43107605 276.18525696 C-12.41271111 253.31937227 -12.39854196 230.45349129 -12.39006042 207.58760071 C-12.38979737 206.88293242 -12.38953432 206.17826414 -12.3892633 205.45224227 C-12.38662629 198.37575601 -12.38407465 191.29926972 -12.38158558 184.22278341 C-12.37651298 169.80681167 -12.37087047 155.39084017 -12.36488342 140.97486877 C-12.36460884 140.31202716 -12.36433426 139.64918555 -12.36405136 138.96625783 C-12.34564607 94.69322324 -12.31391365 50.42019626 -12.28019714 6.14717102 C-11.29019714 5.81717102 -10.30019714 5.48717102 -9.28019714 5.14717102 C-9.11519714 4.48717102 -8.95019714 3.82717102 -8.78019714 3.14717102 C-8.61519714 2.48717102 -8.45019714 1.82717102 -8.28019714 1.14717102 C-5.24103617 0.13411736 -3.18046839 0.01426374 0 0 Z " fill="#FBFBFB" transform="translate(620.2801971435547,191.8528289794922)"/>
<path d="M0 0 C1.1129204 -0.00297112 2.2258408 -0.00594224 3.37248605 -0.0090034 C7.07934071 -0.01763359 10.78616285 -0.01919378 14.49302673 -0.02069092 C17.15966949 -0.0253229 19.82630937 -0.030328 22.49295044 -0.03573608 C29.72000315 -0.04926019 36.94705026 -0.05533378 44.17411351 -0.05974674 C48.69063575 -0.06251712 53.20715588 -0.06675569 57.72367668 -0.07125092 C70.24246238 -0.08343185 82.76124639 -0.09373606 95.28003788 -0.09712601 C96.07961287 -0.09734557 96.87918787 -0.09756514 97.70299241 -0.09779136 C98.90510098 -0.09811878 98.90510098 -0.09811878 100.13149458 -0.09845281 C101.75526051 -0.09889626 103.37902643 -0.09934283 105.00279236 -0.09979248 C105.80822377 -0.10001391 106.61365518 -0.10023534 107.4434936 -0.10046348 C120.50565346 -0.10441488 133.56775765 -0.12188457 146.62989599 -0.145152 C160.05819561 -0.16887784 173.48646728 -0.18132828 186.91478819 -0.18249393 C194.44743512 -0.18340956 201.98000933 -0.1891346 209.51263618 -0.20731354 C215.92300016 -0.22273061 222.33326889 -0.22782523 228.74364788 -0.21957543 C232.01166969 -0.21567567 235.27946017 -0.21820653 238.54746628 -0.23063278 C242.09536683 -0.24333174 245.64277664 -0.2374862 249.19067383 -0.22705078 C250.21597499 -0.23510719 251.24127616 -0.24316359 252.29764706 -0.25146413 C258.34696551 -0.20990599 264.09647479 0.26185987 269.53184509 3.14044189 C275.57415379 9.28438416 275.17669069 17.35987089 275.17527771 25.45710754 C275.15969068 27.19661341 275.14310561 28.93611058 275.12559509 30.67559814 C275.12388142 32.48202942 275.12395227 34.28846318 275.12571716 36.09489441 C275.12406951 39.86821508 275.1054727 43.64093763 275.07383728 47.41412354 C275.03413305 52.2347262 275.02979896 57.05454804 275.03730011 61.87528324 C275.04037888 65.60124277 275.02821755 69.32702892 275.01116943 73.05294609 C275.00417193 74.82982737 275.00101093 76.60672827 275.00186157 78.38362312 C275.00005075 80.87201155 274.97856169 83.35948798 274.95176697 85.84771729 C274.95469757 86.57157623 274.95762817 87.29543518 274.96064758 88.04122925 C274.87388372 93.30029737 273.58242066 97.29601444 271.53184509 102.14044189 C270.87184509 102.14044189 270.21184509 102.14044189 269.53184509 102.14044189 C269.26758728 102.74372314 269.00332947 103.34700439 268.73106384 103.96856689 C267.47429435 106.2446706 266.37744347 107.30862622 264.34434509 108.89044189 C261.54982062 111.17370202 259.22554475 113.56275302 256.90684509 116.32794189 C254.34641401 119.34661568 252.03818607 121.24512245 248.53184509 123.14044189 C247.15873802 124.43277796 245.82149685 125.76481335 244.53184509 127.14044189 C239.43735558 132.23493141 234.22651773 136.93738638 228.40684509 141.20294189 C225.1483612 143.60920692 222.36247895 146.23531768 219.53184509 149.14044189 C214.02360333 154.14044189 214.02360333 154.14044189 211.53184509 154.14044189 C211.53184509 154.80044189 211.53184509 155.46044189 211.53184509 156.14044189 C210.07090759 157.64825439 210.07090759 157.64825439 208.15684509 159.26544189 C207.53036072 159.80427002 206.90387634 160.34309814 206.25840759 160.89825439 C204.53184509 162.14044189 204.53184509 162.14044189 202.53184509 162.14044189 C202.53184509 162.80044189 202.53184509 163.46044189 202.53184509 164.14044189 C201.07090759 165.64825439 201.07090759 165.64825439 199.15684509 167.26544189 C198.53036072 167.80427002 197.90387634 168.34309814 197.25840759 168.89825439 C195.53184509 170.14044189 195.53184509 170.14044189 193.53184509 170.14044189 C193.53184509 170.80044189 193.53184509 171.46044189 193.53184509 172.14044189 C192.47997009 172.53231689 191.42809509 172.92419189 190.34434509 173.32794189 C186.57139912 174.94276277 184.37416151 177.1594759 181.53184509 180.14044189 C180.17908409 181.27174499 178.80252805 182.37503739 177.40684509 183.45294189 C176.74426697 183.96469971 176.08168884 184.47645752 175.39903259 185.00372314 C173.53184509 186.14044189 173.53184509 186.14044189 170.53184509 186.14044189 C170.20184509 166.34044189 169.87184509 146.54044189 169.53184509 126.14044189 C55.35184509 125.81044189 -58.82815491 125.48044189 -176.46815491 125.14044189 C-175.10633754 121.05498979 -172.28296174 119.39782319 -168.96815491 116.89044189 C-168.00921326 116.15192993 -168.00921326 116.15192993 -167.03089905 115.39849854 C-165.75446222 114.41599186 -164.47593462 113.43619473 -163.19520569 112.45928955 C-161.08582263 110.8484771 -158.99517522 109.21440733 -156.90565491 107.57794189 C-154.46371534 105.68015461 -152.0142398 103.79315114 -149.55799866 101.91387939 C-142.91874896 96.8339717 -136.34671542 91.68161307 -129.84461975 86.42681885 C-125.46052932 82.89428389 -120.98935284 79.495289 -116.46815491 76.14044189 C-107.03522931 69.13305612 -97.71730323 62.02377041 -88.57752991 54.63653564 C-81.73106571 49.14044189 -81.73106571 49.14044189 -79.46815491 49.14044189 C-79.46815491 48.48044189 -79.46815491 47.82044189 -79.46815491 47.14044189 C-77.85877991 45.99200439 -77.85877991 45.99200439 -75.71815491 44.76544189 C-72.4582533 42.8940169 -70.08971675 40.82856683 -67.46815491 38.14044189 C-62.67629455 34.11419832 -57.71526856 30.50513006 -52.29237366 27.37872314 C-50.06966957 25.86994971 -48.36094007 24.04400193 -46.46815491 22.14044189 C-44.17206766 20.38898967 -41.83958784 18.70038807 -39.49159241 17.01934814 C-37.18577488 14.87823186 -36.57658538 13.03791803 -35.46815491 10.14044189 C-32.84315491 9.32794189 -32.84315491 9.32794189 -30.46815491 9.14044189 C-30.37405334 8.52555908 -30.27995178 7.91067627 -30.18299866 7.27716064 C-29.46815491 5.14044189 -29.46815491 5.14044189 -27.97206116 3.90997314 C-19.13812688 -0.44478319 -9.66407788 -0.00818492 0 0 Z " fill="#FBFBFB" transform="translate(797.4681549072266,549.8595581054688)"/>
<path d="M0 0 C0 0.66 0 1.32 0 2 C-0.66 2.33 -1.32 2.66 -2 3 C-2.0171132 47.942565 -2.03303449 92.88513037 -2.04234314 137.82769775 C-2.04255023 138.82496359 -2.04255023 138.82496359 -2.04276149 139.84237621 C-2.04575419 154.29017419 -2.0485244 168.7379722 -2.05106533 183.18577026 C-2.0523127 190.27065674 -2.05360925 197.35554322 -2.05493164 204.44042969 C-2.05512778 205.49799376 -2.05512778 205.49799376 -2.05532788 206.57692276 C-2.05959152 229.44181902 -2.06710455 252.30671281 -2.07629722 275.17160757 C-2.08599143 299.32776866 -2.09199459 323.4839282 -2.09408849 347.64009118 C-2.09546315 362.11652461 -2.09981065 376.59295097 -2.10791647 391.06938222 C-2.1131873 400.98563426 -2.11480352 410.90188261 -2.11350138 420.81813595 C-2.11285853 426.54609004 -2.11386955 432.27403173 -2.11920547 438.00198364 C-2.12404969 443.24012999 -2.12433185 448.47825552 -2.12089889 453.7164028 C-2.12047422 455.61686558 -2.12176134 457.51732964 -2.12488318 459.41778991 C-2.12886573 461.99068905 -2.12675166 464.56351192 -2.12304783 467.13640976 C-2.12698835 468.25652425 -2.12698835 468.25652425 -2.13100848 469.39926732 C-2.12005203 472.74165354 -2.04279581 475.80468454 -1 479 C-0.34 479 0.32 479 1 479 C1.495 480.485 1.495 480.485 2 482 C1.38125 482.2475 0.7625 482.495 0.125 482.75 C-2.4314935 484.2538197 -2.70678958 485.38881302 -4 488 C-5.41357422 489.71655273 -5.41357422 489.71655273 -7.0546875 491.43359375 C-7.66401123 492.07643311 -8.27333496 492.71927246 -8.90112305 493.3815918 C-9.55250244 494.0600415 -10.20388184 494.73849121 -10.875 495.4375 C-12.23346384 496.8694209 -13.59153114 498.30171809 -14.94921875 499.734375 C-15.96894775 500.80655273 -15.96894775 500.80655273 -17.00927734 501.90039062 C-19.92467429 504.97525127 -22.8105693 508.0766762 -25.6875 511.1875 C-26.40752197 511.96081665 -26.40752197 511.96081665 -27.14208984 512.74975586 C-29.90214898 515.73367006 -32.4736473 518.81766301 -35 522 C-36.6454378 523.68762851 -38.31288577 525.3540349 -40 527 C-40.845625 527.94875 -41.69125 528.8975 -42.5625 529.875 C-43.366875 530.57625 -44.17125 531.2775 -45 532 C-47.3125 531.8125 -47.3125 531.8125 -49 531 C-49.93299192 526.26429661 -50.14811176 521.66986491 -50.14704514 516.86022186 C-50.15265665 515.64956738 -50.15265665 515.64956738 -50.15838152 514.41445524 C-50.16972767 511.70496869 -50.17405224 508.99551689 -50.17840576 506.28601074 C-50.18512003 504.32582694 -50.19225794 502.36564455 -50.19978356 500.4054637 C-50.21919687 495.01486285 -50.23241161 489.62426184 -50.24458575 484.23364043 C-50.25875259 478.42170496 -50.27854277 472.60978816 -50.29753113 466.79786682 C-50.3379127 454.08955949 -50.37082606 441.38123941 -50.40211773 428.67290688 C-50.42165764 420.74123986 -50.44263821 412.80957706 -50.46387482 404.87791443 C-50.52237026 382.92567001 -50.57900253 360.97342256 -50.62871933 339.02115631 C-50.6319385 337.6020702 -50.63515787 336.18298409 -50.63837744 334.76389799 C-50.64160303 333.34139401 -50.64482852 331.91889003 -50.64805388 330.49638605 C-50.65452525 327.64261022 -50.66100138 324.7888344 -50.66748047 321.93505859 C-50.6690847 321.22749019 -50.67068894 320.51992178 -50.67234178 319.79091191 C-50.72447333 296.83455234 -50.78891069 273.87825031 -50.86070609 250.92194437 C-50.93656547 226.65170622 -51.00152076 202.38146323 -51.05390286 178.11116266 C-51.08265991 164.88042629 -51.11643983 151.6497405 -51.16255951 138.41905212 C-51.20176292 127.15713608 -51.2307249 115.89525296 -51.24618712 104.63327825 C-51.25438953 98.8847296 -51.26751993 93.13630132 -51.29369926 87.38780403 C-51.31753254 82.12879028 -51.32755097 76.86994067 -51.32641616 71.61087471 C-51.32846382 69.7051596 -51.33563981 67.79944192 -51.3483735 65.89376825 C-51.36490073 63.30889736 -51.36295782 60.72467818 -51.35631943 58.13977814 C-51.36551897 57.39519122 -51.37471851 56.6506043 -51.38419682 55.88345414 C-51.34650773 51.19105467 -50.38899578 48.02754138 -48 44 C-47.34 44 -46.68 44 -46 44 C-45.67 43.01 -45.34 42.02 -45 41 C-43.75 39.625 -43.75 39.625 -42 38 C-41.2575 37.2575 -40.515 36.515 -39.75 35.75 C-36.5 32.5 -33.25 29.25 -30 26 C-29.2265625 25.22462891 -29.2265625 25.22462891 -28.4375 24.43359375 C-27.17597289 23.17549471 -25.9014983 21.93040624 -24.625 20.6875 C-21.96275047 18.04797613 -21.96275047 18.04797613 -19.6875 15.125 C-15.68732772 10.24704697 -6.59237169 0 0 0 Z " fill="#B5C2CD" transform="translate(611,195)"/>
<path d="M0 0 C3.50904212 3.58835604 3.42720465 7.10071803 3.38818359 11.85449219 C3.39344055 12.64201874 3.39869751 13.42954529 3.40411377 14.24093628 C3.41731093 16.84311802 3.40857347 19.44468706 3.3984375 22.046875 C3.40045913 23.86045448 3.40337131 25.67403316 3.40713501 27.48760986 C3.41155865 31.29064668 3.40512904 35.09347213 3.39111328 38.89648438 C3.37407012 43.7564222 3.3838313 48.6158612 3.40183067 53.47578049 C3.41270914 57.22316189 3.40920275 60.97042653 3.4014473 64.71781158 C3.39945397 66.50865997 3.40187392 68.29951915 3.40888596 70.09035492 C3.41656202 72.60316201 3.40480892 75.11518081 3.38818359 77.62792969 C3.39425629 78.35964386 3.40032898 79.09135803 3.40658569 79.84524536 C3.34221284 85.13523757 2.06751633 89.12906372 0 94 C-0.66 94 -1.32 94 -2 94 C-2.26425781 94.60328125 -2.52851562 95.2065625 -2.80078125 95.828125 C-4.05755074 98.1042287 -5.15440162 99.16818433 -7.1875 100.75 C-9.98202448 103.03326012 -12.30630034 105.42231113 -14.625 108.1875 C-17.18543108 111.20617378 -19.49365902 113.10468055 -23 115 C-24.37310707 116.29233607 -25.71034824 117.62437146 -27 119 C-32.09448952 124.09448952 -37.30532736 128.79694448 -43.125 133.0625 C-46.38348389 135.46876503 -49.16936615 138.09487578 -52 141 C-57.50824176 146 -57.50824176 146 -60 146 C-60 146.66 -60 147.32 -60 148 C-61.4609375 149.5078125 -61.4609375 149.5078125 -63.375 151.125 C-64.00148438 151.66382813 -64.62796875 152.20265625 -65.2734375 152.7578125 C-67 154 -67 154 -69 154 C-69 154.66 -69 155.32 -69 156 C-70.4609375 157.5078125 -70.4609375 157.5078125 -72.375 159.125 C-73.00148438 159.66382813 -73.62796875 160.20265625 -74.2734375 160.7578125 C-76 162 -76 162 -78 162 C-78 162.66 -78 163.32 -78 164 C-79.5778125 164.5878125 -79.5778125 164.5878125 -81.1875 165.1875 C-84.96044597 166.80232087 -87.15768359 169.01903401 -90 172 C-91.35276101 173.13130309 -92.72931705 174.2345955 -94.125 175.3125 C-94.78757812 175.82425781 -95.45015625 176.33601562 -96.1328125 176.86328125 C-98 178 -98 178 -101 178 C-101.3171167 170.18594079 -101.58938457 162.37168852 -101.8056488 154.55426025 C-101.90747598 150.92350162 -102.0242698 147.29455931 -102.17626953 143.66552734 C-102.32260592 140.15816259 -102.42831653 136.65163499 -102.50683594 133.14212036 C-102.56145919 131.16271609 -102.65728997 129.18458645 -102.75390625 127.20678711 C-102.90336917 118.36103416 -102.90336917 118.36103416 -100.32202148 114.47192383 C-98.31469693 112.43710487 -96.28108744 110.7173614 -94 109 C-92.63953753 107.81971805 -91.28447515 106.6331511 -89.9375 105.4375 C-89.27621094 104.86902344 -88.61492188 104.30054688 -87.93359375 103.71484375 C-86.04505403 102.03995701 -84.26844352 100.30052413 -82.5 98.5 C-79.51462728 95.46745435 -76.38919593 92.66166613 -73.16796875 89.8828125 C-70.75157049 87.7842468 -68.37470976 85.645603 -66 83.5 C-62.39065767 80.24278863 -58.7542229 77.0219938 -55.08203125 73.8359375 C-53.50127804 72.44202754 -51.93944036 71.02663137 -50.38671875 69.6015625 C-49.49597656 68.78429687 -48.60523438 67.96703125 -47.6875 67.125 C-46.86636719 66.36445312 -46.04523437 65.60390625 -45.19921875 64.8203125 C-43 63 -43 63 -40 62 C-40 61.34 -40 60.68 -40 60 C-38.6015625 58.58984375 -38.6015625 58.58984375 -36.625 56.9375 C-32.37741597 53.34106076 -28.28224201 49.60207659 -24.19921875 45.8203125 C-22 44 -22 44 -19 43 C-19 42.34 -19 41.68 -19 41 C-17.49609375 39.5546875 -17.49609375 39.5546875 -15.4375 37.875 C-11.19379325 34.26333468 -7.41470172 30.40885538 -4 26 C-3.4534375 25.31808594 -2.906875 24.63617187 -2.34375 23.93359375 C-0.29632377 19.4637766 -0.42681135 15.0506313 -0.3125 10.1875 C-0.27833984 9.20845703 -0.24417969 8.22941406 -0.20898438 7.22070312 C-0.12680142 4.81391655 -0.05755567 2.40748055 0 0 Z " fill="#C9D3DA" transform="translate(1069,558)"/>
<path d="M0 0 C1.62544235 0.00405602 1.62544235 0.00405602 3.28372192 0.00819397 C5.05198586 0.02054329 5.05198586 0.02054329 6.85597229 0.03314209 C8.10527527 0.03793076 9.35457825 0.04271942 10.64173889 0.0476532 C14.06120816 0.06229427 17.48057466 0.08171384 20.89999652 0.10421848 C23.03799214 0.1181039 25.17599161 0.13073316 27.31399727 0.14296722 C34.00851829 0.18154595 40.70299497 0.22413478 47.39745086 0.27274251 C55.11623868 0.32878372 62.8349525 0.37180351 70.55387825 0.40342355 C76.52778158 0.42865734 82.50154774 0.46526741 88.4753328 0.51050925 C92.04021177 0.53726839 95.60496725 0.55928745 99.16993523 0.56952667 C103.14619475 0.58133794 107.1220555 0.61673961 111.09815979 0.65423584 C112.86338737 0.65443977 112.86338737 0.65443977 114.66427612 0.65464783 C125.10658274 0.78904724 125.10658274 0.78904724 129.54176331 4.10247803 C134.85820786 9.80625185 134.09890112 16.03699734 134.04296875 23.50343323 C134.04686306 24.88655932 134.05250456 26.26968141 134.05973965 27.65279406 C134.07449583 31.44889058 134.06431205 35.24457233 134.05000293 39.04065549 C134.03889671 43.13704872 134.0508351 47.23338359 134.05984497 51.32977295 C134.07378594 59.35586614 134.06621297 67.38180208 134.05116939 75.40788779 C134.03430117 84.76454322 134.03752102 94.12115955 134.04126347 103.47782549 C134.04714455 120.18631885 134.03296561 136.89473693 134.00831604 153.60321045 C133.9844369 169.79139027 133.97729499 185.97946931 133.98780823 202.16766357 C133.99924284 219.80608802 134.00111288 237.44446582 133.98671013 255.08288974 C133.98518438 256.96787973 133.98366402 258.85286972 133.98214912 260.73785973 C133.98139131 261.66520285 133.9806335 262.59254598 133.97985272 263.54799042 C133.97512618 270.05781157 133.97695003 276.56761181 133.98121452 283.07743263 C133.98616505 291.02807842 133.98005253 298.97862927 133.96032023 306.92925344 C133.950512 310.97995464 133.94527199 315.03051197 133.95321274 319.08122063 C134.0081593 350.24504474 134.0081593 350.24504474 130.54176331 364.10247803 C129.88176331 364.10247803 129.22176331 364.10247803 128.54176331 364.10247803 C128.29426331 365.21622803 128.04676331 366.32997803 127.79176331 367.47747803 C126.54176331 371.10247803 126.54176331 371.10247803 124.54176331 372.28997803 C123.55176331 372.69216553 123.55176331 372.69216553 122.54176331 373.10247803 C122.23238831 373.72122803 121.92301331 374.33997803 121.60426331 374.97747803 C120.17550084 377.83500296 118.04739626 379.17506806 115.54176331 381.10247803 C115.21176331 381.76247803 114.88176331 382.42247803 114.54176331 383.10247803 C113.58270081 383.53560303 113.58270081 383.53560303 112.60426331 383.97747803 C110.38476899 384.92421868 110.38476899 384.92421868 109.60426331 387.10247803 C108.14607423 389.84730452 106.36626632 390.01613071 103.54176331 391.10247803 C103.21176331 392.09247803 102.88176331 393.08247803 102.54176331 394.10247803 C101.10426331 395.78997803 101.10426331 395.78997803 99.54176331 397.10247803 C98.88176331 397.10247803 98.22176331 397.10247803 97.54176331 397.10247803 C97.21176331 398.09247803 96.88176331 399.08247803 96.54176331 400.10247803 C95.55176331 400.43247803 94.56176331 400.76247803 93.54176331 401.10247803 C92.33294234 403.10264269 92.33294234 403.10264269 91.54176331 405.10247803 C92.09863831 404.79310303 92.65551331 404.48372803 93.22926331 404.16497803 C95.54176331 403.10247803 95.54176331 403.10247803 98.16676331 402.72747803 C100.71604943 402.34410383 100.71604943 402.34410383 101.85426331 400.03997803 C102.08113831 399.40060303 102.30801331 398.76122803 102.54176331 398.10247803 C103.86176331 398.10247803 105.18176331 398.10247803 106.54176331 398.10247803 C106.80988831 397.48372803 107.07801331 396.86497803 107.35426331 396.22747803 C108.54176331 394.10247803 108.54176331 394.10247803 111.54176331 392.10247803 C112.28426331 391.29810303 112.28426331 391.29810303 113.04176331 390.47747803 C114.54176331 389.10247803 114.54176331 389.10247803 117.54176331 389.10247803 C117.54176331 388.44247803 117.54176331 387.78247803 117.54176331 387.10247803 C119.82810397 385.52121532 122.1078863 384.04512332 124.47926331 382.60247803 C129.21341709 380.05668552 129.21341709 380.05668552 132.54176331 376.10247803 C135.10426331 375.47747803 135.10426331 375.47747803 137.54176331 375.10247803 C134.36572656 378.36925868 131.12140608 381.28990156 127.54176331 384.10247803 C126.45697455 385.05916358 125.37376319 386.01763942 124.29176331 386.97747803 C120.95235554 389.8658111 117.39319488 392.25050693 113.69020081 394.64544678 C111.70789341 395.98981161 109.91318266 397.41121859 108.10426331 398.97747803 C105.54176331 401.10247803 105.54176331 401.10247803 103.54176331 401.10247803 C103.21176331 402.09247803 102.88176331 403.08247803 102.54176331 404.10247803 C97.17033473 408.10247803 97.17033473 408.10247803 94.54176331 408.10247803 C94.54176331 408.76247803 94.54176331 409.42247803 94.54176331 410.10247803 C92.97134517 411.42039756 91.32984825 412.65361462 89.66676331 413.85247803 C88.56783025 414.65542096 87.470263 415.46023527 86.37379456 416.26654053 C85.4623468 416.93604736 85.4623468 416.93604736 84.53248596 417.61907959 C80.76094644 420.42946396 77.06144101 423.33305446 73.35426331 426.22747803 C72.25138977 427.08744385 72.25138977 427.08744385 71.12623596 427.96478271 C68.14910743 430.28674383 65.17271038 432.60963891 62.19728088 434.93377686 C58.03224226 438.18176672 53.84629418 441.3926648 49.60426331 444.53997803 C45.04695563 447.94645043 40.58234544 451.44363104 36.15504456 455.01654053 C32.68697008 457.78477934 29.16501407 460.48079639 25.64186096 463.17816162 C21.56086854 466.30704149 17.51490385 469.47789104 13.47926331 472.66497803 C8.01227851 476.98182149 2.47109465 481.18413547 -3.13011169 485.32513428 C-5.48774494 487.04334181 -5.48774494 487.04334181 -7.45823669 489.10247803 C-8.07183044 489.3886499 -8.68542419 489.67482178 -9.31761169 489.96966553 C-11.94024837 491.3575572 -13.64857539 493.09916134 -15.70823669 495.22747803 C-16.41464294 495.95193115 -17.12104919 496.67638428 -17.84886169 497.42279053 C-18.37995544 497.9770874 -18.91104919 498.53138428 -19.45823669 499.10247803 C-19.45823669 494.93788737 -17.14515403 493.01464592 -14.45823669 490.10247803 C-13.62292419 489.29810303 -13.62292419 489.29810303 -12.77073669 488.47747803 C-11.20118747 486.83318836 -10.41963265 485.15345606 -9.45823669 483.10247803 C-8.79823669 482.11247803 -8.13823669 481.12247803 -7.45823669 480.10247803 C-6.79823669 480.10247803 -6.13823669 480.10247803 -5.45823669 480.10247803 C-5.12823669 479.11247803 -4.79823669 478.12247803 -4.45823669 477.10247803 C-3.79823669 477.10247803 -3.13823669 477.10247803 -2.45823669 477.10247803 C-2.25263123 476.57017578 -2.04702576 476.03787354 -1.83518982 475.48944092 C0.10913921 472.11892587 2.81134093 469.60798566 5.57301331 466.91107178 C6.16473328 466.32455338 6.75645325 465.73803497 7.36610413 465.13374329 C9.25329369 463.26433128 11.14704013 461.40175159 13.04176331 459.53997803 C14.93560622 457.6737807 16.82796162 455.80613525 18.71742249 453.9355011 C19.89215781 452.77299177 21.06955642 451.61316617 22.24989319 450.4563446 C24.63603008 448.09939311 26.6743665 445.90357324 28.54176331 443.10247803 C29.20176331 443.10247803 29.86176331 443.10247803 30.54176331 443.10247803 C30.87176331 442.11247803 31.20176331 441.12247803 31.54176331 440.10247803 C32.20176331 440.10247803 32.86176331 440.10247803 33.54176331 440.10247803 C33.87176331 439.11247803 34.20176331 438.12247803 34.54176331 437.10247803 C35.20176331 437.10247803 35.86176331 437.10247803 36.54176331 437.10247803 C36.87176331 436.11247803 37.20176331 435.12247803 37.54176331 434.10247803 C38.20176331 434.10247803 38.86176331 434.10247803 39.54176331 434.10247803 C39.87176331 433.11247803 40.20176331 432.12247803 40.54176331 431.10247803 C41.20176331 431.10247803 41.86176331 431.10247803 42.54176331 431.10247803 C42.87176331 430.11247803 43.20176331 429.12247803 43.54176331 428.10247803 C44.20176331 428.10247803 44.86176331 428.10247803 45.54176331 428.10247803 C45.85693909 427.29616943 45.85693909 427.29616943 46.17848206 426.47357178 C48.06117126 423.19909514 50.66389695 420.77076213 53.35426331 418.16497803 C53.87568909 417.65257568 54.39711487 417.14017334 54.93434143 416.61224365 C56.46731402 415.10606459 58.00445384 413.60422829 59.54176331 412.10247803 C63.09578941 408.62612049 63.09578941 408.62612049 66.22926331 404.78997803 C66.66238831 404.23310303 67.09551331 403.67622803 67.54176331 403.10247803 C68.20176331 403.10247803 68.86176331 403.10247803 69.54176331 403.10247803 C69.87176331 402.11247803 70.20176331 401.12247803 70.54176331 400.10247803 C71.20176331 400.10247803 71.86176331 400.10247803 72.54176331 400.10247803 C72.87176331 399.11247803 73.20176331 398.12247803 73.54176331 397.10247803 C74.20176331 397.10247803 74.86176331 397.10247803 75.54176331 397.10247803 C75.78926331 396.48372803 76.03676331 395.86497803 76.29176331 395.22747803 C77.77916699 392.69889176 78.97854339 392.38408798 81.54176331 391.10247803 C81.78861877 390.54955078 82.03547424 389.99662354 82.28981018 389.42694092 C84.11885858 386.03100297 86.83948556 383.58050099 89.57301331 380.91107178 C90.16473328 380.32455338 90.75645325 379.73803497 91.36610413 379.13374329 C93.25329369 377.26433128 95.14704013 375.40175159 97.04176331 373.53997803 C98.93560622 371.6737807 100.82796162 369.80613525 102.71742249 367.9355011 C103.89215781 366.77299177 105.06955642 365.61316617 106.24989319 364.4563446 C108.63603008 362.09939311 110.6743665 359.90357324 112.54176331 357.10247803 C113.20176331 357.10247803 113.86176331 357.10247803 114.54176331 357.10247803 C114.88207581 356.26716553 114.88207581 356.26716553 115.22926331 355.41497803 C116.91726367 352.44088215 119.00852847 350.38238938 121.54176331 348.10247803 C122.20176331 348.10247803 122.86176331 348.10247803 123.54176331 348.10247803 C123.87176331 347.11247803 124.20176331 346.12247803 124.54176331 345.10247803 C125.20176331 345.10247803 125.86176331 345.10247803 126.54176331 345.10247803 C126.83051331 344.50435303 127.11926331 343.90622803 127.41676331 343.28997803 C128.54176331 341.10247803 128.54176331 341.10247803 130.54176331 338.10247803 C130.84072933 335.52062861 130.84072933 335.52062861 130.78785896 332.56398487 C130.79184106 331.40500779 130.79582316 330.24603071 130.79992592 329.05193311 C130.79410024 327.77276775 130.78827456 326.49360239 130.78227234 325.17567444 C130.78314405 323.80777554 130.78489439 322.43987697 130.78745067 321.07198018 C130.79193503 317.30479479 130.78390565 313.53772253 130.77389455 309.77055156 C130.76527796 305.71126164 130.76817894 301.65197838 130.7696991 297.59268188 C130.77074909 290.55691828 130.7644606 283.52119169 130.75322342 276.48543739 C130.73698679 266.31285451 130.7317623 256.14028958 130.72924744 245.96769514 C130.72486744 229.46435415 130.7115501 212.9610329 130.69264221 196.45770264 C130.67429128 180.42384948 130.66013093 164.39000167 130.65162659 148.35614014 C130.65083842 146.87427909 130.65083842 146.87427909 130.65003432 145.36248145 C130.6474243 140.4065658 130.64489687 135.45065012 130.64241052 130.49473441 C130.62166855 89.36396854 130.58643475 48.23322441 130.54176331 7.10247803 C129.59301331 6.79310303 128.64426331 6.48372803 127.66676331 6.16497803 C124.54176331 5.10247803 124.54176331 5.10247803 122.54176331 4.10247803 C120.82183839 4.00089013 119.09799677 3.96301591 117.37509155 3.95530701 C115.73276047 3.94457405 115.73276047 3.94457405 114.05725098 3.93362427 C112.8504921 3.93093536 111.64373322 3.92824646 110.40040588 3.92547607 C108.50025726 3.91561928 108.50025726 3.91561928 106.5617218 3.90556335 C102.35325896 3.88451183 98.14479573 3.87415796 93.93629456 3.86419678 C92.48710804 3.86014922 91.03792171 3.8560323 89.58873558 3.85184669 C82.77837818 3.83279031 75.96803162 3.81856188 69.15765268 3.81023473 C61.30059505 3.80046901 53.44381964 3.77416907 45.58686143 3.73373383 C39.51202496 3.70354533 33.43726924 3.68876315 27.36235923 3.68545371 C23.73524853 3.68310572 20.10843918 3.67417904 16.48140907 3.64899254 C12.43079085 3.62132016 8.3808002 3.62555125 4.33009338 3.63250732 C3.13345566 3.61969727 1.93681793 3.60688721 0.70391846 3.59368896 C-6.01529758 3.63576072 -9.90502607 4.31354563 -15.45823669 8.10247803 C-16.44823669 8.10247803 -17.43823669 8.10247803 -18.45823669 8.10247803 C-12.44693987 1.92871372 -8.55076572 -0.04006934 0 0 Z " fill="#98ABB9" transform="translate(623.4582366943359,188.89752197265625)"/>
<path d="M0 0 C0.66 0 1.32 0 2 0 C1.25 3.375 1.25 3.375 0 7 C-2 8.1875 -2 8.1875 -4 9 C-4.309375 9.61875 -4.61875 10.2375 -4.9375 10.875 C-6.36626247 13.73252493 -8.49436704 15.07259003 -11 17 C-11.33 17.66 -11.66 18.32 -12 19 C-12.9590625 19.433125 -12.9590625 19.433125 -13.9375 19.875 C-16.15699431 20.82174065 -16.15699431 20.82174065 -16.9375 23 C-18.39568908 25.7448265 -20.17549698 25.91365269 -23 27 C-23.495 28.485 -23.495 28.485 -24 30 C-25.4375 31.6875 -25.4375 31.6875 -27 33 C-27.66 33 -28.32 33 -29 33 C-29.33 33.99 -29.66 34.98 -30 36 C-31.485 36.495 -31.485 36.495 -33 37 C-34.20882096 39.00016466 -34.20882096 39.00016466 -35 41 C-34.1646875 40.5359375 -34.1646875 40.5359375 -33.3125 40.0625 C-31 39 -31 39 -28.375 38.625 C-25.82571387 38.2416258 -25.82571387 38.2416258 -24.6875 35.9375 C-24.460625 35.298125 -24.23375 34.65875 -24 34 C-22.68 34 -21.36 34 -20 34 C-19.731875 33.38125 -19.46375 32.7625 -19.1875 32.125 C-18 30 -18 30 -15 28 C-14.505 27.46375 -14.01 26.9275 -13.5 26.375 C-12 25 -12 25 -9 25 C-9 24.34 -9 23.68 -9 23 C-6.71365933 21.41873729 -4.43387701 19.94264529 -2.0625 18.5 C2.67165378 15.9542075 2.67165378 15.9542075 6 12 C8.5625 11.375 8.5625 11.375 11 11 C7.82396325 14.26678065 4.57964277 17.18742354 1 20 C-0.08478875 20.95668556 -1.16800012 21.9151614 -2.25 22.875 C-5.58940776 25.76333308 -9.14856843 28.1480289 -12.8515625 30.54296875 C-14.83386989 31.88733358 -16.62858065 33.30874056 -18.4375 34.875 C-21 37 -21 37 -23 37 C-23.33 37.99 -23.66 38.98 -24 40 C-29.37142857 44 -29.37142857 44 -32 44 C-32 44.66 -32 45.32 -32 46 C-33.57041813 47.31791953 -35.21191505 48.5511366 -36.875 49.75 C-37.97393306 50.55294293 -39.07150031 51.35775724 -40.16796875 52.1640625 C-40.77560059 52.61040039 -41.38323242 53.05673828 -42.00927734 53.51660156 C-45.78081687 56.32698593 -49.4803223 59.23057643 -53.1875 62.125 C-53.92274902 62.69831055 -54.65799805 63.27162109 -55.41552734 63.86230469 C-58.39265588 66.18426581 -61.36905292 68.50716088 -64.34448242 70.83129883 C-68.50952105 74.0792887 -72.69546912 77.29018677 -76.9375 80.4375 C-81.49480767 83.8439724 -85.95941786 87.34115301 -90.38671875 90.9140625 C-93.85479322 93.68230132 -97.37674923 96.37831837 -100.89990234 99.07568359 C-104.38437291 101.74721264 -107.84668864 104.44453545 -111.29248047 107.16577148 C-113.6179836 109.00083402 -115.95133115 110.82579367 -118.28466797 112.65087891 C-120.00118848 114.00093475 -121.70550828 115.36547054 -123.41015625 116.73046875 C-124.48123503 117.57099572 -125.55282572 118.4108709 -126.625 119.25 C-127.56601562 119.99765625 -128.50703125 120.7453125 -129.4765625 121.515625 C-132 123 -132 123 -134.3359375 122.734375 C-135.15964844 122.37085938 -135.15964844 122.37085938 -136 122 C-133.06233919 118.00053408 -129.92768484 115.24574645 -125.9375 112.3125 C-120.57704926 108.30386104 -115.61984019 104.01800343 -110.70703125 99.46484375 C-98.71543141 88.54608545 -98.71543141 88.54608545 -93 86 C-93 85.34 -93 84.68 -93 84 C-91.42578125 82.66796875 -91.42578125 82.66796875 -89.3125 81.1875 C-85.8407812 78.74879734 -82.99150685 76.00527145 -80 73 C-78.33101343 71.60258629 -76.64276997 70.22789895 -74.9375 68.875 C-69.69229777 64.63359658 -64.73338773 60.15556131 -59.7890625 55.57421875 C-56.84136595 52.85358566 -53.85106317 50.19316838 -50.81640625 47.5703125 C-49.54470132 46.47090308 -48.28240526 45.36055914 -47.02734375 44.2421875 C-46.39957031 43.68789063 -45.77179688 43.13359375 -45.125 42.5625 C-44.57070313 42.06878906 -44.01640625 41.57507813 -43.4453125 41.06640625 C-42 40 -42 40 -40 40 C-39.67 39.01 -39.34 38.02 -39 37 C-37.5625 35.3125 -37.5625 35.3125 -36 34 C-35.34 34 -34.68 34 -34 34 C-33.67 33.01 -33.34 32.02 -33 31 C-27.53488372 26 -27.53488372 26 -25 26 C-24.505 24.515 -24.505 24.515 -24 23 C-22.00390625 21.17578125 -22.00390625 21.17578125 -19.5625 19.3125 C-18.75941406 18.68988281 -17.95632813 18.06726563 -17.12890625 17.42578125 C-15 16 -15 16 -13 16 C-12.7421875 15.40703125 -12.484375 14.8140625 -12.21875 14.203125 C-10.90230105 11.82339035 -9.57419218 10.49021208 -7.5 8.75 C-6.8915625 8.22921875 -6.283125 7.7084375 -5.65625 7.171875 C-4 6 -4 6 -2 6 C-1.34 4.02 -0.68 2.04 0 0 Z " fill="#1A4857" transform="translate(750,553)"/>
<path d="M0 0 C1.62544235 0.00405602 1.62544235 0.00405602 3.28372192 0.00819397 C5.05198586 0.02054329 5.05198586 0.02054329 6.85597229 0.03314209 C8.10527527 0.03793076 9.35457825 0.04271942 10.64173889 0.0476532 C14.06120816 0.06229427 17.48057466 0.08171384 20.89999652 0.10421848 C23.03799214 0.1181039 25.17599161 0.13073316 27.31399727 0.14296722 C34.00851829 0.18154595 40.70299497 0.22413478 47.39745086 0.27274251 C55.11623868 0.32878372 62.8349525 0.37180351 70.55387825 0.40342355 C76.52778158 0.42865734 82.50154774 0.46526741 88.4753328 0.51050925 C92.04021177 0.53726839 95.60496725 0.55928745 99.16993523 0.56952667 C103.14619475 0.58133794 107.1220555 0.61673961 111.09815979 0.65423584 C112.86338737 0.65443977 112.86338737 0.65443977 114.66427612 0.65464783 C125.10658274 0.78904724 125.10658274 0.78904724 129.54176331 4.10247803 C134.88364787 9.81759923 134.09584974 16.11256303 134.03623962 23.59764099 C134.03941741 24.99074388 134.0443462 26.38384369 134.05087245 27.77693492 C134.06368896 31.60006802 134.05157201 35.42277697 134.03534389 39.24588215 C134.02218119 43.37063067 134.03208862 47.49533211 134.03910828 51.62008667 C134.04918963 59.69763643 134.03791305 67.77502238 134.01940767 75.85255178 C133.99864141 85.25469824 133.99877998 94.65680928 133.99975283 104.05897436 C134.00075402 120.83010199 133.98243102 137.60115332 133.9533844 154.37225342 C133.92519614 170.65612172 133.91104343 186.93992288 133.91236877 203.22381592 C133.91248864 204.72883336 133.91248864 204.72883336 133.91261093 206.26425519 C133.91269164 207.26584575 133.91277235 208.26743631 133.91285551 209.2993781 C133.91423413 227.82701182 133.90246291 246.35461696 133.88454907 264.88224142 C133.87850975 271.44071301 133.87638918 277.99917936 133.87548447 284.55765343 C133.8741221 292.54454941 133.86521916 300.5313972 133.84681885 308.51827272 C133.83756722 312.59556442 133.83149762 316.67279436 133.83400726 320.75009727 C133.83619104 324.47867209 133.8291995 328.20711013 133.81471021 331.93565641 C133.80934184 333.93138647 133.81381376 335.9271354 133.81857431 337.922867 C133.80890097 339.68713289 133.80890097 339.68713289 133.79903221 341.48704052 C133.79762336 342.50637493 133.79621451 343.52570935 133.79476297 344.57593268 C133.54176331 347.10247803 133.54176331 347.10247803 131.54176331 350.10247803 C131.21176331 236.91247803 130.88176331 123.72247803 130.54176331 7.10247803 C128.56176331 6.44247803 126.58176331 5.78247803 124.54176331 5.10247803 C123.55176331 4.60747803 123.55176331 4.60747803 122.54176331 4.10247803 C120.82183839 4.00089013 119.09799677 3.96301591 117.37509155 3.95530701 C115.73276047 3.94457405 115.73276047 3.94457405 114.05725098 3.93362427 C112.8504921 3.93093536 111.64373322 3.92824646 110.40040588 3.92547607 C108.50025726 3.91561928 108.50025726 3.91561928 106.5617218 3.90556335 C102.35325896 3.88451183 98.14479573 3.87415796 93.93629456 3.86419678 C92.48710804 3.86014922 91.03792171 3.8560323 89.58873558 3.85184669 C82.77837818 3.83279031 75.96803162 3.81856188 69.15765268 3.81023473 C61.30059505 3.80046901 53.44381964 3.77416907 45.58686143 3.73373383 C39.51202496 3.70354533 33.43726924 3.68876315 27.36235923 3.68545371 C23.73524853 3.68310572 20.10843918 3.67417904 16.48140907 3.64899254 C12.43079085 3.62132016 8.3808002 3.62555125 4.33009338 3.63250732 C3.13345566 3.61969727 1.93681793 3.60688721 0.70391846 3.59368896 C-6.01529758 3.63576072 -9.90502607 4.31354563 -15.45823669 8.10247803 C-16.44823669 8.10247803 -17.43823669 8.10247803 -18.45823669 8.10247803 C-12.44693987 1.92871372 -8.55076572 -0.04006934 0 0 Z " fill="#8EB2B6" transform="translate(623.4582366943359,188.89752197265625)"/>
<path d="M0 0 C0.66 0 1.32 0 2 0 C2.00135653 0.99396367 2.00271306 1.98792733 2.00411069 3.01201111 C2.06401923 46.81290217 2.12638803 90.61378936 2.20132446 134.41465759 C2.20245809 135.07767758 2.20359171 135.74069756 2.20475969 136.42380906 C2.22941055 150.83267083 2.2545034 165.24153179 2.28005161 179.650392 C2.29257757 186.71639075 2.30500586 193.78238966 2.31738281 200.84838867 C2.31861614 201.55154427 2.31984946 202.25469986 2.32112016 202.9791632 C2.3610572 225.77458072 2.394543 248.57000216 2.42468691 271.36543455 C2.45657396 295.45259136 2.49580434 319.53972645 2.54279006 343.62685865 C2.57070398 358.05875014 2.59272443 372.49062612 2.60726251 386.92253738 C2.61778544 396.81219645 2.63558749 406.70182553 2.65916704 416.59146202 C2.67256483 422.30156408 2.68270203 428.01162401 2.68421364 433.72174263 C2.68566762 438.94713063 2.69624099 444.17241709 2.71413441 449.39777391 C2.71899302 451.2902086 2.72047592 453.18265553 2.71827881 455.07509518 C2.71578502 457.64447832 2.72550563 460.21353763 2.73828697 462.78288364 C2.73463729 463.52014125 2.73098761 464.25739886 2.72722733 465.01699761 C2.7845526 471.69788772 3.94672006 478.71185238 8.625 483.75 C9.07875 484.1625 9.5325 484.575 10 485 C7.26615283 484.45323057 5.49933028 483.57046479 3.65249372 481.46052819 C-1.15341552 473.92752038 -0.68107073 466.05782221 -0.59454346 457.44914246 C-0.59600901 455.76033266 -0.59967782 454.07152358 -0.60535121 452.38272268 C-0.61456987 447.75539463 -0.59269444 443.12866053 -0.56566906 438.50142157 C-0.54198252 433.50524838 -0.54729878 428.50909567 -0.54910278 423.51287842 C-0.54831433 414.85657166 -0.52933502 406.20045868 -0.49808502 397.54421043 C-0.45294447 385.00704187 -0.43651728 372.46996241 -0.42719969 359.93272201 C-0.41137848 339.56227175 -0.37396904 319.19192187 -0.32226562 298.8215332 C-0.27223175 279.08521423 -0.22969762 259.34890833 -0.19921875 239.61254883 C-0.19733973 238.39856622 -0.19546071 237.18458361 -0.19352475 235.93381365 C-0.1731776 222.66252158 -0.15470005 209.39122723 -0.13712692 196.11993122 C-0.13242603 192.59186907 -0.12771857 189.06380694 -0.1230022 185.53574481 C-0.11990657 183.20884914 -0.11684271 180.88195343 -0.11381111 178.55505768 C-0.09444719 163.79439339 -0.06697055 149.0337754 -0.03066301 134.27314317 C-0.0124434 126.80830871 0.00228484 119.34346868 0.01593539 111.87862458 C0.02517239 106.94049758 0.03619381 102.0023905 0.05191422 97.06427956 C0.22916816 71.98542967 0.22916816 71.98542967 -0.76948166 46.9343462 C-1.17777243 39.96588871 -1.14906102 32.99122537 -1.13037109 26.01269531 C-1.12489003 23.57611181 -1.13042893 21.13970386 -1.13671875 18.703125 C-1.13605966 17.12760377 -1.13478203 15.55208264 -1.1328125 13.9765625 C-1.13483673 13.26094147 -1.13686096 12.54532043 -1.13894653 11.80801392 C-1.12010754 7.76930625 -0.77895962 3.96287006 0 0 Z " fill="#5C7985" transform="translate(559,249)"/>
<path d="M0 0 C1.1129204 -0.00297112 2.2258408 -0.00594224 3.37248605 -0.0090034 C7.07934071 -0.01763359 10.78616285 -0.01919378 14.49302673 -0.02069092 C17.15966949 -0.0253229 19.82630937 -0.030328 22.49295044 -0.03573608 C29.72000315 -0.04926019 36.94705026 -0.05533378 44.17411351 -0.05974674 C48.69063575 -0.06251712 53.20715588 -0.06675569 57.72367668 -0.07125092 C70.24246238 -0.08343185 82.76124639 -0.09373606 95.28003788 -0.09712601 C96.07961287 -0.09734557 96.87918787 -0.09756514 97.70299241 -0.09779136 C98.90510098 -0.09811878 98.90510098 -0.09811878 100.13149458 -0.09845281 C101.75526051 -0.09889626 103.37902643 -0.09934283 105.00279236 -0.09979248 C105.80822377 -0.10001391 106.61365518 -0.10023534 107.4434936 -0.10046348 C120.50565346 -0.10441488 133.56775765 -0.12188457 146.62989599 -0.145152 C160.05819561 -0.16887784 173.48646728 -0.18132828 186.91478819 -0.18249393 C194.44743512 -0.18340956 201.98000933 -0.1891346 209.51263618 -0.20731354 C215.92300016 -0.22273061 222.33326889 -0.22782523 228.74364788 -0.21957543 C232.01166969 -0.21567567 235.27946017 -0.21820653 238.54746628 -0.23063278 C242.09536683 -0.24333174 245.64277664 -0.2374862 249.19067383 -0.22705078 C250.21597499 -0.23510719 251.24127616 -0.24316359 252.29764706 -0.25146413 C258.34093346 -0.20994743 264.09141794 0.27978518 269.53184509 3.14044189 C271.09434509 5.82794189 271.09434509 5.82794189 271.53184509 8.14044189 C271.08916387 7.78679237 270.64648264 7.43314284 270.19038683 7.06877667 C264.16059716 2.73401768 259.191128 2.4316628 251.91110229 2.51225281 C250.18091499 2.50161123 250.18091499 2.50161123 248.41577441 2.49075466 C245.23178011 2.47624766 242.04876051 2.48402425 238.86481035 2.5014776 C235.42439007 2.51488713 231.98408022 2.49940182 228.54367065 2.48765564 C221.81123153 2.46930182 215.07908314 2.47777584 208.34665316 2.49574386 C202.87443823 2.50978338 197.40230209 2.51365977 191.93007088 2.51030159 C191.15052399 2.50982415 190.3709771 2.50934671 189.56780757 2.5088548 C187.98406595 2.50782844 186.40032434 2.50677308 184.81658275 2.50568903 C170.82081458 2.49712669 156.82518657 2.51378241 142.82945251 2.54351807 C129.25419733 2.57235989 115.67914401 2.57943581 102.10386658 2.56402588 C87.31334503 2.54725941 72.52291928 2.54323361 57.73239523 2.56073624 C56.15486468 2.56258059 54.57733412 2.56441532 52.99980354 2.56624031 C51.83560223 2.56760845 51.83560223 2.56760845 50.6478817 2.56900422 C45.18279923 2.57460643 39.71776357 2.57130544 34.25268364 2.56469536 C27.59183224 2.55695864 20.93117944 2.56372699 14.27036803 2.5888704 C10.87297408 2.60135712 7.47588919 2.60752228 4.07848358 2.59632874 C0.39386464 2.58765219 -3.28985229 2.60356174 -6.97439575 2.6257782 C-8.04579632 2.61753743 -9.11719689 2.60929666 -10.22106415 2.60080618 C-16.57069767 2.67156908 -20.229286 3.52571564 -25.46815491 7.14044189 C-27.11988303 7.84330492 -28.78117408 8.52699432 -30.46815491 9.14044189 C-30.09991814 6.73429208 -29.88805387 5.48578961 -27.97206116 3.90997314 C-19.13812688 -0.44478319 -9.66407788 -0.00818492 0 0 Z " fill="#1E5870" transform="translate(797.4681549072266,549.8595581054688)"/>
<path d="M0 0 C0.99 0.495 0.99 0.495 2 1 C1.04882866 2.1725131 0.08882991 3.33787015 -0.875 4.5 C-1.40867187 5.1496875 -1.94234375 5.799375 -2.4921875 6.46875 C-2.98976563 6.9740625 -3.48734375 7.479375 -4 8 C-4.66 8 -5.32 8 -6 8 C-6.33 9.65 -6.66 11.3 -7 13 C-6.01 13.33 -5.02 13.66 -4 14 C-7.45687665 17.59032226 -11.0128393 20.67220972 -15 23.6875 C-16.15239404 24.56373594 -17.3047363 25.44004 -18.45703125 26.31640625 C-19.04307129 26.76000488 -19.62911133 27.20360352 -20.23291016 27.66064453 C-23.06021047 29.80358036 -25.87467227 31.96311947 -28.6875 34.125 C-29.23083984 34.54225342 -29.77417969 34.95950684 -30.33398438 35.3894043 C-34.40753493 38.52522548 -38.42182241 41.72932562 -42.42578125 44.953125 C-45.85340119 47.67857697 -49.33017765 50.33856861 -52.81665039 52.98803711 C-55.91572229 55.35487331 -58.95570673 57.77484453 -61.953125 60.26953125 C-62.61675049 60.81706055 -63.28037598 61.36458984 -63.96411133 61.92871094 C-65.25068727 62.99388058 -66.52962156 64.06836916 -67.79956055 65.15332031 C-71.47801668 68.18517479 -74.07448399 69.69168526 -79 70 C-76.70209304 65.42880651 -73.53080707 62.79567622 -69.5 59.8125 C-63.96425971 55.59758549 -58.78039804 51.1603612 -53.671875 46.4296875 C-41.69187007 35.53558945 -41.69187007 35.53558945 -36 33 C-36 32.34 -36 31.68 -36 31 C-34.42578125 29.66796875 -34.42578125 29.66796875 -32.3125 28.1875 C-28.8407812 25.74879734 -25.99150685 23.00527145 -23 20 C-21.33101343 18.60258629 -19.64276997 17.22789895 -17.9375 15.875 C-11.70939545 10.84330246 -5.8490671 5.46117085 0 0 Z " fill="#244D5B" transform="translate(693,606)"/>
<path d="M0 0 C0.66 0 1.32 0 2 0 C1.67 2.31 1.34 4.62 1 7 C0.34 7 -0.32 7 -1 7 C-0.89525782 65.38825121 -0.78545182 123.77649118 -0.66888306 182.16472001 C-0.65511084 189.06375207 -0.64138579 195.96278421 -0.62768555 202.86181641 C-0.62632146 203.54832371 -0.62495738 204.23483101 -0.62355196 204.94214156 C-0.57942404 227.16167568 -0.53840653 249.38121422 -0.49901587 271.6007572 C-0.45734218 295.09852529 -0.41209491 318.59628355 -0.36312145 342.09403777 C-0.33392213 356.15891102 -0.30754523 370.22378367 -0.28482103 384.2886689 C-0.26894798 393.94386921 -0.24951471 403.59905835 -0.22733159 413.25424621 C-0.21465201 418.81810533 -0.20349436 424.38195605 -0.19658089 429.94582558 C-0.19020022 435.052821 -0.1792879 440.15978714 -0.1649667 445.26676628 C-0.16058656 447.10156165 -0.1577839 448.93636171 -0.15683801 450.77116206 C-0.14920776 463.20925476 0.27970089 475.58268649 1 488 C0.34 487.67 -0.32 487.34 -1 487 C-2.1282087 482.32131647 -2.14810655 477.64636297 -2.14704514 472.86022186 C-2.15078614 472.05311888 -2.15452715 471.24601589 -2.15838152 470.41445524 C-2.16972767 467.70496869 -2.17405224 464.99551689 -2.17840576 462.28601074 C-2.18512003 460.32582694 -2.19225794 458.36564455 -2.19978356 456.4054637 C-2.21919687 451.01486285 -2.23241161 445.62426184 -2.24458575 440.23364043 C-2.25875259 434.42170496 -2.27854277 428.60978816 -2.29753113 422.79786682 C-2.3379127 410.08955949 -2.37082606 397.38123941 -2.40211773 384.67290688 C-2.42165764 376.74123986 -2.44263821 368.80957706 -2.46387482 360.87791443 C-2.52237026 338.92567001 -2.57900253 316.97342256 -2.62871933 295.02115631 C-2.6319385 293.6020702 -2.63515787 292.18298409 -2.63837744 290.76389799 C-2.64160303 289.34139401 -2.64482852 287.91889003 -2.64805388 286.49638605 C-2.65452525 283.64261022 -2.66100138 280.7888344 -2.66748047 277.93505859 C-2.6690847 277.22749019 -2.67068894 276.51992178 -2.67234178 275.79091191 C-2.72447333 252.83455234 -2.78891069 229.87825031 -2.86070609 206.92194437 C-2.93656547 182.65170622 -3.00152076 158.38146323 -3.05390286 134.11116266 C-3.08265991 120.88042629 -3.11643983 107.6497405 -3.16255951 94.41905212 C-3.20176292 83.15713608 -3.2307249 71.89525296 -3.24618712 60.63327825 C-3.25438953 54.8847296 -3.26751993 49.13630132 -3.29369926 43.38780403 C-3.31753254 38.12879028 -3.32755097 32.86994067 -3.32641616 27.61087471 C-3.32846382 25.7051596 -3.33563981 23.79944192 -3.3483735 21.89376825 C-3.36490073 19.30889736 -3.36295782 16.72467818 -3.35631943 14.13977814 C-3.37011874 13.02289776 -3.37011874 13.02289776 -3.38419682 11.88345414 C-3.34650773 7.19105467 -2.38899578 4.02754138 0 0 Z " fill="#91A7B3" transform="translate(563,239)"/>
<path d="M0 0 C0.66 0.33 1.32 0.66 2 1 C-12.8417779 16.72638718 -12.8417779 16.72638718 -21.82124203 17.12534916 C-23.47092432 17.12559269 -23.47092432 17.12559269 -25.15393353 17.12584114 C-26.42488642 17.12844889 -27.69583932 17.13105664 -29.00530595 17.13374341 C-30.41871383 17.13158121 -31.83212157 17.12932454 -33.24552917 17.12698364 C-34.7449662 17.12813551 -36.24440294 17.12972347 -37.74383909 17.13171089 C-41.87092155 17.13589621 -45.99798098 17.13381698 -50.12506354 17.13072467 C-54.57473065 17.12846715 -59.02439374 17.13195223 -63.47406006 17.13470459 C-72.19956352 17.13915978 -80.92505839 17.13818626 -89.65056219 17.13529195 C-96.75265632 17.1330339 -103.85474804 17.13272715 -110.95684242 17.13381577 C-111.96763996 17.133969 -112.97843751 17.13412223 -114.01986528 17.13428011 C-116.07353486 17.13459985 -118.12720444 17.13492406 -120.18087403 17.1352527 C-139.46291211 17.13810754 -158.74494545 17.13482199 -178.02698276 17.12945233 C-194.52946551 17.1249985 -211.03194121 17.12574845 -227.53442383 17.13037109 C-246.71474187 17.13574137 -265.89505573 17.1378179 -285.07537442 17.13475883 C-287.12792512 17.13444031 -289.18047581 17.13412594 -291.2330265 17.13381577 C-292.24275722 17.13366149 -293.25248793 17.13350721 -294.29281655 17.13334826 C-301.36591404 17.13248939 -308.43900886 17.13393267 -315.51210594 17.13629532 C-324.1630179 17.13912144 -332.8139208 17.13829702 -341.46483173 17.13301457 C-345.86886619 17.13041291 -350.27288564 17.12931115 -354.67691994 17.13266373 C-369.90193801 17.14314909 -385.12358569 17.1459119 -400.34150696 16.61691284 C-401.33592527 16.58655603 -402.33034357 16.55619921 -403.35489577 16.52492249 C-408.56153993 16.30836096 -413.05944692 15.67618952 -418 14 C-418 13.34 -418 12.68 -418 12 C-412.25 12.875 -412.25 12.875 -410 14 C-407.88851455 14.10153071 -405.7737445 14.13650745 -403.65982819 14.14260101 C-402.99867398 14.14585203 -402.33751977 14.14910305 -401.65633059 14.15245259 C-399.41919269 14.16219229 -397.18210308 14.16474965 -394.94494629 14.1673584 C-393.33342393 14.17280223 -391.72190295 14.1786654 -390.11038351 14.18491411 C-385.66479613 14.20080273 -381.21921429 14.21029274 -376.77360725 14.21867895 C-372.96462563 14.22667122 -369.15565905 14.23836428 -365.34668738 14.25009376 C-351.6998944 14.29204649 -338.05308378 14.31921295 -324.40625 14.34375 C-323.32949438 14.3457249 -322.25273876 14.3476998 -321.14335418 14.34973454 C-299.76974597 14.38889544 -278.39613199 14.42261 -257.02249908 14.44481659 C-252.32098889 14.44978606 -247.61947878 14.45483035 -242.91796875 14.45996094 C-241.74940187 14.46123161 -240.58083498 14.46250228 -239.37685698 14.46381146 C-220.4496633 14.48516844 -201.52264331 14.53415858 -182.59553701 14.59420508 C-163.17051402 14.65532372 -143.74558063 14.69000431 -124.3204627 14.6992898 C-113.41116921 14.70520242 -102.50216979 14.72297203 -91.5929718 14.77067566 C-82.30103851 14.81126931 -73.00944725 14.82815704 -63.71742922 14.81402284 C-58.97677235 14.80755402 -54.236844 14.81241251 -49.49629974 14.84789658 C-45.15312732 14.8801448 -40.81119641 14.87986079 -36.46799201 14.85407954 C-34.89989723 14.85043659 -33.33171989 14.85855524 -31.76376563 14.87986106 C-21.75596139 15.00761547 -15.7519117 13.53356038 -8 7 C-7.27306017 6.65820316 -6.54612035 6.31640632 -5.79715204 5.964252 C-3.64307064 5.07329031 -3.64307064 5.07329031 -3 2 C-1.515 1.01 -1.515 1.01 0 0 Z " fill="#153743" transform="translate(987,722)"/>
<path d="M0 0 C1.62544235 0.00405602 1.62544235 0.00405602 3.28372192 0.00819397 C5.05198586 0.02054329 5.05198586 0.02054329 6.85597229 0.03314209 C8.10527527 0.03793076 9.35457825 0.04271942 10.64173889 0.0476532 C14.06120816 0.06229427 17.48057466 0.08171384 20.89999652 0.10421848 C23.03799214 0.1181039 25.17599161 0.13073316 27.31399727 0.14296722 C34.00851829 0.18154595 40.70299497 0.22413478 47.39745086 0.27274251 C55.11623868 0.32878372 62.8349525 0.37180351 70.55387825 0.40342355 C76.52778158 0.42865734 82.50154774 0.46526741 88.4753328 0.51050925 C92.04021177 0.53726839 95.60496725 0.55928745 99.16993523 0.56952667 C103.14619475 0.58133794 107.1220555 0.61673961 111.09815979 0.65423584 C112.86338737 0.65443977 112.86338737 0.65443977 114.66427612 0.65464783 C124.78329721 0.78488634 124.78329721 0.78488634 129.54176331 4.10247803 C131.97926331 7.03997803 131.97926331 7.03997803 133.54176331 10.10247803 C133.29176331 12.47747803 133.29176331 12.47747803 132.54176331 14.10247803 C131.0811348 11.45508886 130.54176331 10.20799468 130.54176331 7.10247803 C129.59301331 6.79310303 128.64426331 6.48372803 127.66676331 6.16497803 C124.54176331 5.10247803 124.54176331 5.10247803 122.54176331 4.10247803 C120.82183839 4.00089013 119.09799677 3.96301591 117.37509155 3.95530701 C115.73276047 3.94457405 115.73276047 3.94457405 114.05725098 3.93362427 C112.8504921 3.93093536 111.64373322 3.92824646 110.40040588 3.92547607 C108.50025726 3.91561928 108.50025726 3.91561928 106.5617218 3.90556335 C102.35325896 3.88451183 98.14479573 3.87415796 93.93629456 3.86419678 C92.48710804 3.86014922 91.03792171 3.8560323 89.58873558 3.85184669 C82.77837818 3.83279031 75.96803162 3.81856188 69.15765268 3.81023473 C61.30059505 3.80046901 53.44381964 3.77416907 45.58686143 3.73373383 C39.51202496 3.70354533 33.43726924 3.68876315 27.36235923 3.68545371 C23.73524853 3.68310572 20.10843918 3.67417904 16.48140907 3.64899254 C12.43079085 3.62132016 8.3808002 3.62555125 4.33009338 3.63250732 C3.13345566 3.61969727 1.93681793 3.60688721 0.70391846 3.59368896 C-6.01529758 3.63576072 -9.90502607 4.31354563 -15.45823669 8.10247803 C-16.44823669 8.10247803 -17.43823669 8.10247803 -18.45823669 8.10247803 C-12.44693987 1.92871372 -8.55076572 -0.04006934 0 0 Z " fill="#386972" transform="translate(623.4582366943359,188.89752197265625)"/>
<path d="M0 0 C0.99 0 1.98 0 3 0 C3 0.66 3 1.32 3 2 C1.35 2.66 -0.3 3.32 -2 4 C-2 4.66 -2 5.32 -2 6 C-3.61083052 7.36066366 -5.29372101 8.63613254 -7 9.875 C-8.09441155 10.67096619 -9.18812327 11.46789523 -10.28125 12.265625 C-10.87550781 12.69810547 -11.46976563 13.13058594 -12.08203125 13.57617188 C-14.15579934 15.11565959 -16.18817663 16.70089612 -18.21875 18.296875 C-18.92902344 18.84875488 -19.63929688 19.40063477 -20.37109375 19.96923828 C-21.77678315 21.06251644 -23.17542462 22.16492474 -24.56640625 23.27685547 C-25.21480469 23.77588379 -25.86320313 24.27491211 -26.53125 24.7890625 C-27.10423828 25.23975098 -27.67722656 25.69043945 -28.26757812 26.15478516 C-30 27 -30 27 -32.21679688 26.63818359 C-32.80525391 26.42758301 -33.39371094 26.21698242 -34 26 C-33.57731619 21.0686889 -31.53931344 19.30848865 -28 16 C-26.82380426 14.6331424 -25.65764594 13.25760334 -24.5 11.875 C-20.55049322 7.3270831 -16.62378053 5.08883277 -11 3 C-11 3.66 -11 4.32 -11 5 C-11.66 5 -12.32 5 -13 5 C-12.01 5.99 -11.02 6.98 -10 8 C-9.443125 7.21625 -8.88625 6.4325 -8.3125 5.625 C-5.90430234 2.89137023 -4.39616619 2.1014593 -1 1 C-0.67 0.67 -0.34 0.34 0 0 Z " fill="#163A45" transform="translate(720,593)"/>
<path d="M0 0 C0.495 1.485 0.495 1.485 1 3 C-3.29676563 6.731085 -7.59657881 10.45860918 -11.89990234 14.18212891 C-13.25245273 15.35291363 -14.60438946 16.52440783 -15.95556641 17.69677734 C-27.58919964 27.78652482 -27.58919964 27.78652482 -32.8125 31.625 C-36.00256361 33.6301072 -36.00256361 33.6301072 -37 36 C-36.34 36.33 -35.68 36.66 -35 37 C-36 39 -36 39 -37.796875 39.8671875 C-40.47017647 41.24175741 -42.16385654 42.96931843 -44.25 45.125 C-44.95640625 45.84945312 -45.6628125 46.57390625 -46.390625 47.3203125 C-47.18726563 48.15175781 -47.18726563 48.15175781 -48 49 C-48 44.83540934 -45.68691734 42.9121679 -43 40 C-42.443125 39.46375 -41.88625 38.9275 -41.3125 38.375 C-39.74295077 36.73071033 -38.96139595 35.05097803 -38 33 C-37.34 32.01 -36.68 31.02 -36 30 C-35.34 30 -34.68 30 -34 30 C-33.67 29.01 -33.34 28.02 -33 27 C-32.34 27 -31.68 27 -31 27 C-30.77957031 26.45472656 -30.55914063 25.90945313 -30.33203125 25.34765625 C-28.57232243 22.24623396 -26.20758295 19.91742227 -23.6875 17.4375 C-23.21376953 16.95603516 -22.74003906 16.47457031 -22.25195312 15.97851562 C-19.36740683 13.10975344 -16.48075932 11.06120005 -13 9 C-10.93011554 6.98499884 -9.00446491 4.879915 -7.0625 2.7421875 C-4.69302461 0.74069882 -3.04485475 0.34888961 0 0 Z " fill="#8AA1B1" transform="translate(652,639)"/>
<path d="M0 0 C0.66 0 1.32 0 2 0 C2 39.27 2 78.54 2 119 C1.67 119 1.34 119 1 119 C0.98969254 118.34283997 0.97938507 117.68567993 0.96876526 117.00860596 C0.85915231 110.06328396 0.74471505 103.11805246 0.62768555 96.17285156 C0.58482385 93.59344406 0.54312351 91.01401695 0.50268555 88.43457031 C0.30083801 75.60603794 0.05758474 62.80071767 -0.66169739 49.98989868 C-1.09286837 41.99751932 -1.15180362 34.01527194 -1.13037109 26.01269531 C-1.12489003 23.57611181 -1.13042893 21.13970386 -1.13671875 18.703125 C-1.13605966 17.12760377 -1.13478203 15.55208264 -1.1328125 13.9765625 C-1.13483673 13.26094147 -1.13686096 12.54532043 -1.13894653 11.80801392 C-1.12010754 7.76930625 -0.77895962 3.96287006 0 0 Z " fill="#335A69" transform="translate(559,249)"/>
<path d="M0 0 C0.495 0.99 0.495 0.99 1 2 C0.67 2.99 0.34 3.98 0 5 C-0.66 5 -1.32 5 -2 5 C-2.26425781 5.60328125 -2.52851562 6.2065625 -2.80078125 6.828125 C-4.05755074 9.1042287 -5.15440162 10.16818433 -7.1875 11.75 C-9.98202448 14.03326012 -12.30630034 16.42231113 -14.625 19.1875 C-17.18543108 22.20617378 -19.49365902 24.10468055 -23 26 C-24.37310707 27.29233607 -25.71034824 28.62437146 -27 30 C-32.09448952 35.09448952 -37.30532736 39.79694448 -43.125 44.0625 C-46.38348389 46.46876503 -49.16936615 49.09487578 -52 52 C-57.50824176 57 -57.50824176 57 -60 57 C-60 57.66 -60 58.32 -60 59 C-61.53125 60.5078125 -61.53125 60.5078125 -63.5 62.125 C-64.1496875 62.66382813 -64.799375 63.20265625 -65.46875 63.7578125 C-65.9740625 64.16773438 -66.479375 64.57765625 -67 65 C-67.66 64.67 -68.32 64.34 -69 64 C-65.82228249 59.82357127 -63.99634009 57.80423392 -59 56 C-58.67 55.01 -58.34 54.02 -58 53 C-52.53488372 48 -52.53488372 48 -50 48 C-49.67 47.01 -49.34 46.02 -49 45 C-48.195625 44.690625 -47.39125 44.38125 -46.5625 44.0625 C-43.43800067 42.76697589 -43.38921254 41.95207666 -42 39 C-37.55555556 35 -37.55555556 35 -35 35 C-34.67 34.01 -34.34 33.02 -34 32 C-33.34 32 -32.68 32 -32 32 C-31.505 30.515 -31.505 30.515 -31 29 C-29.33333333 28.33333333 -27.66666667 27.66666667 -26 27 C-25.505 25.515 -25.505 25.515 -25 24 C-24.34 24 -23.68 24 -23 24 C-23 23.34 -23 22.68 -23 22 C-21.57421875 20.59765625 -21.57421875 20.59765625 -19.6875 19.0625 C-16.5705158 16.50748779 -13.77785308 13.85312918 -11.0625 10.875 C-8.95217459 8.95652235 -7.77687133 8.3966959 -5 8 C-4.9175 7.4225 -4.835 6.845 -4.75 6.25 C-3.79468987 3.3840696 -2.21530827 2.0009236 0 0 Z " fill="#24505F" transform="translate(1069,647)"/>
<path d="M0 0 C0.99 0.495 0.99 0.495 2 1 C-12.90969541 16.79835275 -12.90969541 16.79835275 -22.63201904 17.12025452 C-24.11242563 17.12314575 -25.59284926 17.12051267 -27.07324219 17.11352539 C-28.28843788 17.11374443 -28.28843788 17.11374443 -29.52818298 17.1139679 C-32.20110773 17.11327224 -34.87396245 17.10549606 -37.546875 17.09765625 C-39.40203819 17.09579084 -41.25720187 17.09436752 -43.11236572 17.09336853 C-47.99169274 17.08955305 -52.87098993 17.07973102 -57.75030518 17.06866455 C-62.7306681 17.05842961 -67.71103584 17.05386644 -72.69140625 17.04882812 C-82.4609506 17.0381079 -92.23047282 17.02104309 -102 17 C-102.33 16.34 -102.66 15.68 -103 15 C-101.95731964 15.0030162 -100.91463928 15.00603241 -99.84036255 15.00914001 C-89.9834183 15.03308028 -80.12711162 15.02009081 -70.27025032 14.97153378 C-65.20339763 14.94774429 -60.13720083 14.93667931 -55.0703125 14.95532227 C-50.174517 14.97285709 -45.27989603 14.95614671 -40.38424301 14.91632271 C-38.52250058 14.907074 -36.66065551 14.90988087 -34.79895401 14.92530632 C-23.72209516 15.00812534 -16.58588116 14.69887445 -8 7 C-7.27757111 6.65827255 -6.55514221 6.3165451 -5.81082153 5.96446228 C-3.64295097 5.07663424 -3.64295097 5.07663424 -3 2 C-2.01 1.34 -1.02 0.68 0 0 Z " fill="#103849" transform="translate(987,722)"/>
<path d="M0 0 C0.495 1.98 0.495 1.98 1 4 C-0.32 4.33 -1.64 4.66 -3 5 C-2.505 6.485 -2.505 6.485 -2 8 C-3.61886415 9.67262717 -5.2452729 11.33795537 -6.875 13 C-8.23238281 14.3921875 -8.23238281 14.3921875 -9.6171875 15.8125 C-12 18 -12 18 -14 18 C-14.33 18.99 -14.66 19.98 -15 21 C-16.98320018 22.03291676 -18.98347806 23.0337499 -21 24 C-21.33 24.66 -21.66 25.32 -22 26 C-22.66 26 -23.32 26 -24 26 C-24.33 26.99 -24.66 27.98 -25 29 C-25.804375 29.639375 -26.60875 30.27875 -27.4375 30.9375 C-30.0451413 32.74331418 -30.0451413 32.74331418 -31 35 C-32.41376464 37.82752928 -34.44107802 39.20875461 -37 41 C-37.66 41 -38.32 41 -39 41 C-37.94722793 37.84168378 -37.35024514 37.18237049 -35 35 C-34.2575 34.2575 -33.515 33.515 -32.75 32.75 C-29.5 29.5 -26.25 26.25 -23 23 C-22.2265625 22.22462891 -22.2265625 22.22462891 -21.4375 21.43359375 C-20.17597289 20.17549471 -18.9014983 18.93040624 -17.625 17.6875 C-14.96275047 15.04797613 -14.96275047 15.04797613 -12.6875 12.125 C-10.04051847 8.87106729 -6.9604302 6.22453348 -3.76953125 3.515625 C-1.91655093 1.96792368 -1.91655093 1.96792368 0 0 Z " fill="#7A99A5" transform="translate(604,198)"/>
<path d="M0 0 C0.66 0 1.32 0 2 0 C1.67 2.31 1.34 4.62 1 7 C0.34 7 -0.32 7 -1 7 C-1 38.35 -1 69.7 -1 102 C-1.33 102 -1.66 102 -2 102 C-2.20027741 89.58700475 -2.38398928 77.17388526 -2.54658794 64.76033592 C-2.62260988 58.99615347 -2.70432422 53.23216919 -2.79907227 47.46826172 C-2.89030872 41.90521268 -2.96656018 36.34214108 -3.03244972 30.77873611 C-3.06020933 28.6568092 -3.09335723 26.53494567 -3.13199425 24.41318893 C-3.18521309 21.43999857 -3.21922412 18.46715911 -3.2487793 15.49365234 C-3.26891586 14.6175531 -3.28905243 13.74145386 -3.30979919 12.83880615 C-3.33642786 7.77392185 -2.73603738 4.43576386 0 0 Z " fill="#91A8B4" transform="translate(563,239)"/>
<path d="M0 0 C0.66 0.33 1.32 0.66 2 1 C1.01 2.485 1.01 2.485 0 4 C0.66 4.33 1.32 4.66 2 5 C-0.0383122 6.75403721 -2.08045769 8.50324973 -4.125 10.25 C-4.69476562 10.74113281 -5.26453125 11.23226562 -5.8515625 11.73828125 C-9.41831579 14.7781278 -12.97208664 17.59251155 -17 20 C-19.375 19.75 -19.375 19.75 -21 19 C-17.99963792 14.88920979 -14.57152826 11.92421064 -10.5 8.9375 C-6.75789649 6.16698573 -3.20359708 3.39989592 0 0 Z " fill="#264E5E" transform="translate(635,656)"/>
<path d="M0 0 C7.71933412 -0.06964741 15.43863547 -0.12288592 23.15821266 -0.15543652 C26.74312092 -0.17106279 30.3278135 -0.1922448 33.91259766 -0.22631836 C37.37502525 -0.25902129 40.83724596 -0.27687586 44.29981613 -0.28463173 C46.2573708 -0.29283593 48.21484276 -0.31623793 50.17227173 -0.33988953 C51.97345963 -0.34022942 51.97345963 -0.34022942 53.81103516 -0.34057617 C54.86360504 -0.34723801 55.91617493 -0.35389984 57.00064087 -0.36076355 C62.08373243 0.25063178 65.1898501 2.02366551 68.4375 5.9375 C70 9 70 9 69.75 11.375 C69.37875 12.179375 69.37875 12.179375 69 13 C67.5393715 10.35261084 67 9.10551666 67 6 C66.13375 5.71125 65.2675 5.4225 64.375 5.125 C61 4 61 4 58.57763672 2.95556641 C53.20843137 1.52148222 47.91828592 1.64049082 42.3828125 1.5859375 C40.56437332 1.55688828 40.56437332 1.55688828 38.709198 1.5272522 C34.84786961 1.46760685 30.98651117 1.42113055 27.125 1.375 C24.50259137 1.33680644 21.88019509 1.29775391 19.2578125 1.2578125 C12.83865161 1.16191753 6.41941591 1.07682595 0 1 C0 0.67 0 0.34 0 0 Z " fill="#184853" transform="translate(687,190)"/>
<path d="M0 0 C2.86784412 2.86784412 2.28542126 4.93735804 2.34375 8.94921875 C2.3583728 9.64006058 2.37299561 10.3309024 2.38806152 11.04267883 C2.43461473 13.2575599 2.46874318 15.47235346 2.5 17.6875 C2.54141574 20.58755768 2.59529504 23.48701337 2.65625 26.38671875 C2.68428711 28.32357544 2.68428711 28.32357544 2.71289062 30.29956055 C3.24088346 37.1046519 4.86580679 43.33255163 10 48 C7.31058925 47.46211785 5.52516911 46.56143978 3.64257812 44.54882812 C-1.72962833 36.46224367 -0.54606265 27.23505619 -0.3125 17.9375 C-0.28738293 16.1959956 -0.26457578 14.45445626 -0.24414062 12.71289062 C-0.18942087 8.47438842 -0.1033402 4.23758416 0 0 Z " fill="#2C5664" transform="translate(559,686)"/>
<path d="M0 0 C0.66 0 1.32 0 2 0 C0.25 3.875 0.25 3.875 -2 5 C-2.1546875 5.9590625 -2.1546875 5.9590625 -2.3125 6.9375 C-2.539375 7.618125 -2.76625 8.29875 -3 9 C-5.375 10.0625 -5.375 10.0625 -8 11 C-10.6296988 13.06619192 -11.43463006 14.72085432 -12 18 C-13.32 17.67 -14.64 17.34 -16 17 C-15.51999859 12.67998734 -14.38496591 10.72677809 -11 8 C-10.113125 7.649375 -9.22625 7.29875 -8.3125 6.9375 C-7.549375 6.628125 -6.78625 6.31875 -6 6 C-5.67 5.01 -5.34 4.02 -5 3 C-3.68 3 -2.36 3 -1 3 C-0.67 2.01 -0.34 1.02 0 0 Z " fill="#11333D" transform="translate(702,602)"/>
<path d="M0 0 C0.33 0.99 0.66 1.98 1 3 C-8.24 12.24 -17.48 21.48 -27 31 C-27.66 30.67 -28.32 30.34 -29 30 C-26.90625 27.90625 -26.90625 27.90625 -24.8125 25.8125 C-23.58080078 24.57886719 -23.58080078 24.57886719 -22.32421875 23.3203125 C-21.01972132 22.0180075 -19.71228099 20.7185814 -18.39453125 19.4296875 C-16.52107262 17.59658029 -14.86066974 15.80906594 -13.3125 13.6875 C-12.6628125 12.8521875 -12.6628125 12.8521875 -12 12 C-11.34 12 -10.68 12 -10 12 C-9.67 11.01 -9.34 10.02 -9 9 C-8.34 9 -7.68 9 -7 9 C-6.67 8.01 -6.34 7.02 -6 6 C-5.34 6 -4.68 6 -4 6 C-3.566875 5.071875 -3.566875 5.071875 -3.125 4.125 C-2 2 -2 2 0 0 Z " fill="#AABAC5" transform="translate(703,580)"/>
<path d="M0 0 C-2.39281045 1.94133678 -4.78906463 3.87813398 -7.1875 5.8125 C-7.86103516 6.35970703 -8.53457031 6.90691406 -9.22851562 7.47070312 C-12.69446982 10.26037357 -16.09308567 12.8379212 -20 15 C-20 11 -20 11 -18 9 C-18 8.67 -18 8.34 -18 8 C-16.35 8 -14.7 8 -13 8 C-12.34 6.68 -11.68 5.36 -11 4 C-10.01 4 -9.02 4 -8 4 C-7.896875 3.360625 -7.79375 2.72125 -7.6875 2.0625 C-7.460625 1.381875 -7.23375 0.70125 -7 0 C-3.86650268 -1.04449911 -3.01031744 -0.93423645 0 0 Z " fill="#29515E" transform="translate(711,604)"/>
<path d="M0 0 C0.66 0 1.32 0 2 0 C2 17.16 2 34.32 2 52 C1.67 52 1.34 52 1 52 C0.97494385 50.71311279 0.9498877 49.42622559 0.92407227 48.1003418 C0.82998428 43.33119546 0.72976687 38.56219429 0.62768555 33.79321289 C0.58434197 31.72814324 0.54266648 29.66303788 0.50268555 27.59790039 C0.44496917 24.63156365 0.38127849 21.66540655 0.31640625 18.69921875 C0.29969376 17.7741301 0.28298126 16.84904144 0.26576233 15.8959198 C0.24581711 15.03525406 0.22587189 14.17458832 0.20532227 13.2878418 C0.18977798 12.53061325 0.1742337 11.7733847 0.15821838 10.99320984 C0.06367677 8.79075185 0.06367677 8.79075185 -1 6 C-0.72428861 3.99124558 -0.39764263 1.98821313 0 0 Z " fill="#49737D" transform="translate(559,249)"/>
<path d="M0 0 C1.36065073 0.02010015 2.7213302 0.03834471 4.08203125 0.0546875 C7.388763 0.1015915 10.69400416 0.16722275 14 0.25 C14 0.58 14 0.91 14 1.25 C12.87356079 1.26401855 12.87356079 1.26401855 11.72436523 1.27832031 C8.29476356 1.33227564 4.86648892 1.41587547 1.4375 1.5 C0.25607422 1.51417969 -0.92535156 1.52835938 -2.14257812 1.54296875 C-8.99529094 1.73492149 -13.39223244 2.24445174 -19 6.25 C-20.65172812 6.95286303 -22.31301918 7.63655243 -24 8.25 C-23.6953125 6.38964844 -23.6953125 6.38964844 -23 4.25 C-15.83221836 -0.87496387 -8.53471729 -0.21733854 0 0 Z " fill="#34636F" transform="translate(791,550.75)"/>
<path d="M0 0 C0 0.66 0 1.32 0 2 C-0.99 2.495 -0.99 2.495 -2 3 C-2.46727852 4.83528863 -2.46727852 4.83528863 -2.6328125 7.03515625 C-2.75849609 8.24848633 -2.75849609 8.24848633 -2.88671875 9.48632812 C-3.00466797 10.7615332 -3.00466797 10.7615332 -3.125 12.0625 C-3.21136719 12.91650391 -3.29773438 13.77050781 -3.38671875 14.65039062 C-3.59947228 16.76610633 -3.80079953 18.88296524 -4 21 C-4.33 21 -4.66 21 -5 21 C-5.33 18.36 -5.66 15.72 -6 13 C-6.99 12.67 -7.98 12.34 -9 12 C-9.6875 9.9375 -9.6875 9.9375 -10 8 C-8.68 7.67 -7.36 7.34 -6 7 C-6 5.68 -6 4.36 -6 3 C-2.78571429 0 -2.78571429 0 0 0 Z " fill="#A4B7C2" transform="translate(611,195)"/>
<path d="M0 0 C0.66 0.33 1.32 0.66 2 1 C0.71937515 2.7074998 -0.61767557 4.37373596 -2 6 C-2.66 6 -3.32 6 -4 6 C-4.33 6.99 -4.66 7.98 -5 9 C-5.804375 9.639375 -6.60875 10.27875 -7.4375 10.9375 C-10.0451413 12.74331418 -10.0451413 12.74331418 -11 15 C-12.41376464 17.82752928 -14.44107802 19.20875461 -17 21 C-17.66 21 -18.32 21 -19 21 C-17.94722793 17.84168378 -17.35024514 17.18237049 -15 15 C-14.2575 14.2575 -13.515 13.515 -12.75 12.75 C-8.5 8.5 -4.25 4.25 0 0 Z " fill="#285967" transform="translate(584,218)"/>
<path d="M0 0 C0.33 0.66 0.66 1.32 1 2 C0.67 2.99 0.34 3.98 0 5 C-0.66 5 -1.32 5 -2 5 C-2.2578125 5.59683594 -2.515625 6.19367187 -2.78125 6.80859375 C-4.10058422 9.18085817 -5.3874932 10.38413125 -7.5 12.0625 C-9.93664912 14.00872186 -11.22262121 15.33393182 -13 18 C-14.32 17.67 -15.64 17.34 -17 17 C-15.66666667 15.66666667 -14.33333333 14.33333333 -13 13 C-12.34 12.278125 -11.68 11.55625 -11 10.8125 C-8.92913615 8.93577964 -7.72644011 8.38949144 -5 8 C-4.9175 7.4225 -4.835 6.845 -4.75 6.25 C-3.79468987 3.3840696 -2.21530827 2.0009236 0 0 Z " fill="#355E6B" transform="translate(1069,647)"/>
<path d="M0 0 C1.32 0.66 2.64 1.32 4 2 C1.42215154 4.64752004 -0.91648098 6.94432065 -4 9 C-6.1875 8.625 -6.1875 8.625 -8 8 C-5.58443874 4.80800833 -3.31996462 2.25283313 0 0 Z " fill="#3D6271" transform="translate(622,667)"/>
<path d="M0 0 C0.66 0.33 1.32 0.66 2 1 C1.03900391 1.76183594 1.03900391 1.76183594 0.05859375 2.5390625 C-5.04624212 6.60162935 -10.07688134 10.71902725 -15 15 C-15.33 13.68 -15.66 12.36 -16 11 C-15.14535156 10.44570313 -14.29070313 9.89140625 -13.41015625 9.3203125 C-12.29411027 8.58878657 -11.1782336 7.85700229 -10.0625 7.125 C-8.96035156 6.40570312 -7.85820313 5.68640625 -6.72265625 4.9453125 C-3.94618034 3.28216717 -3.94618034 3.28216717 -3 1 C-2.01 0.67 -1.02 0.34 0 0 Z " fill="#2B5A6A" transform="translate(759,564)"/>
<path d="M0 0 C0.66 0 1.32 0 2 0 C1.25 3.375 1.25 3.375 0 7 C-2 8.1875 -2 8.1875 -4 9 C-4.268125 9.66 -4.53625 10.32 -4.8125 11 C-6 13 -6 13 -9.625 14.25 C-10.73875 14.4975 -11.8525 14.745 -13 15 C-7.79138066 8.30576071 -7.79138066 8.30576071 -4.25 6.9375 C-1.63586139 6.15728365 -1.63586139 6.15728365 -0.6875 2.875 C-0.460625 1.92625 -0.23375 0.9775 0 0 Z " fill="#275767" transform="translate(750,553)"/>
<path d="M0 0 C0.66 0.33 1.32 0.66 2 1 C-3.14353894 6.45010749 -8.63663056 11.99508217 -15 16 C-15.99 15.67 -16.98 15.34 -18 15 C-17.319375 14.46375 -16.63875 13.9275 -15.9375 13.375 C-13.06443777 11.05209862 -10.30205622 8.63643174 -7.55078125 6.171875 C-6 5 -6 5 -4 5 C-3.67 4.01 -3.34 3.02 -3 2 C-2.01 1.34 -1.02 0.68 0 0 Z " fill="#2C5865" transform="translate(987,722)"/>
<path d="M0 0 C0.33 0.66 0.66 1.32 1 2 C-4.91781611 9.08470943 -11.43141333 15.52848604 -18 22 C-18.66 21.67 -19.32 21.34 -20 21 C-19.5560791 20.56131592 -19.1121582 20.12263184 -18.65478516 19.6706543 C-16.64222971 17.67890386 -14.6335838 15.68325526 -12.625 13.6875 C-11.92632813 12.99720703 -11.22765625 12.30691406 -10.5078125 11.59570312 C-9.8375 10.92861328 -9.1671875 10.26152344 -8.4765625 9.57421875 C-7.85861816 8.96151123 -7.24067383 8.34880371 -6.60400391 7.7175293 C-4.80710653 5.88670835 -4.80710653 5.88670835 -3 3 C-2.34 3 -1.68 3 -1 3 C-0.67 2.01 -0.34 1.02 0 0 Z " fill="#98ACBA" transform="translate(655,629)"/>
<path d="M0 0 C-2.30407806 2.70765861 -3.88990346 3.40819353 -7.375 3.9375 C-11.50149012 4.72510089 -13.92910569 6.0281668 -17 9 C-17.66 8.67 -18.32 8.34 -19 8 C-12.76889023 1.60048185 -8.88459228 -0.20661843 0 0 Z " fill="#265969" transform="translate(624,189)"/>
<path d="M0 0 C1.134375 0.020625 2.26875 0.04125 3.4375 0.0625 C0.97945513 3.038028 -0.84886043 3.37159031 -4.5625 4.0625 C-6.57836684 5.03011608 -8.58003602 6.02817096 -10.5625 7.0625 C-11.5525 7.3925 -12.5425 7.7225 -13.5625 8.0625 C-13.3125 5.6875 -13.3125 5.6875 -12.5625 3.0625 C-10.5 1.75 -10.5 1.75 -8.5625 1.0625 C-8.5625 1.7225 -8.5625 2.3825 -8.5625 3.0625 C-2.31735437 0.04065534 -2.31735437 0.04065534 0 0 Z " fill="#1E536C" transform="translate(723.5625,590.9375)"/>
<path d="M0 0 C0.33 0.99 0.66 1.98 1 3 C-2.75 6 -2.75 6 -5 6 C-5.33 6.99 -5.66 7.98 -6 9 C-7.4375 10.6875 -7.4375 10.6875 -9 12 C-9.66 12 -10.32 12 -11 12 C-11.33 12.99 -11.66 13.98 -12 15 C-12.99 14.67 -13.98 14.34 -15 14 C-14.32904297 13.36771484 -14.32904297 13.36771484 -13.64453125 12.72265625 C-12.04389229 11.04597743 -10.91722131 9.3940669 -9.6875 7.4375 C-7.2723345 3.943218 -5.15502363 3.03875591 -1 2 C-0.67 1.34 -0.34 0.68 0 0 Z " fill="#0E445E" transform="translate(732,574)"/>
<path d="M0 0 C0.66 0 1.32 0 2 0 C1.67 2.31 1.34 4.62 1 7 C0.34 7 -0.32 7 -1 7 C-1 13.6 -1 20.2 -1 27 C-1.33 27 -1.66 27 -2 27 C-2.25663005 23.62650589 -2.47534842 20.25155991 -2.6875 16.875 C-2.76033203 15.92367187 -2.83316406 14.97234375 -2.90820312 13.9921875 C-3.23432812 8.46724644 -3.14711811 4.80562508 0 0 Z " fill="#8FAAB4" transform="translate(563,239)"/>
<path d="M0 0 C-3.43361902 3.63559661 -6.7973607 6.36113346 -11 9 C-10.91952772 6.1834702 -10.52438279 4.51090251 -8.48046875 2.51953125 C-3.55255498 -1.18418499 -3.55255498 -1.18418499 0 0 Z " fill="#819AA9" transform="translate(631,660)"/>
<path d="M0 0 C0.66 0.33 1.32 0.66 2 1 C1.01 2.485 1.01 2.485 0 4 C-0.66 4 -1.32 4 -2 4 C-2.268125 4.61875 -2.53625 5.2375 -2.8125 5.875 C-4 8 -4 8 -7 10 C-6.65652573 6.79424013 -6.0292146 6.02483241 -3.5 3.875 C-2.675 3.25625 -1.85 2.6375 -1 2 C-0.67 1.34 -0.34 0.68 0 0 Z M-10 11 C-9.34 11.33 -8.68 11.66 -8 12 C-8.99 12.66 -9.98 13.32 -11 14 C-10.67 13.01 -10.34 12.02 -10 11 Z M-13 14 C-12.34 14.33 -11.68 14.66 -11 15 C-11.99 15.99 -12.98 16.98 -14 18 C-14.66 17.67 -15.32 17.34 -16 17 C-15.01 16.01 -14.02 15.02 -13 14 Z " fill="#9BB2BC" transform="translate(580,224)"/>
<path d="M0 0 C0.66 0.33 1.32 0.66 2 1 C1.071875 2.1446875 1.071875 2.1446875 0.125 3.3125 C-2.05597052 5.99625809 -2.05597052 5.99625809 -4 9 C-4.66 9 -5.32 9 -6 9 C-6.66 10.32 -7.32 11.64 -8 13 C-8.33 11.35 -8.66 9.7 -9 8 C-8.34 8 -7.68 8 -7 8 C-6.67 7.01 -6.34 6.02 -6 5 C-4.12382302 3.15500602 -2.07262391 1.6316401 0 0 Z " fill="#26515F" transform="translate(723,579)"/>
<path d="M0 0 C0.33 1.32 0.66 2.64 1 4 C0.38125 4.061875 -0.2375 4.12375 -0.875 4.1875 C-1.57625 4.455625 -2.2775 4.72375 -3 5 C-3.433125 6.2065625 -3.433125 6.2065625 -3.875 7.4375 C-5 10 -5 10 -8.125 11.3125 C-9.07375 11.539375 -10.0225 11.76625 -11 12 C-9.85996765 8.57990294 -8.77829802 7.71130558 -6.0625 5.4375 C-3.96656037 3.66869432 -1.94005112 1.94005112 0 0 Z " fill="#436E7B" transform="translate(604,198)"/>
<path d="M0 0 C0.33 0.99 0.66 1.98 1 3 C1.66 3.33 2.32 3.66 3 4 C2.01 4.66 1.02 5.32 0 6 C-0.72382467 8.05925139 -0.72382467 8.05925139 -1 10 C-2.32 9.67 -3.64 9.34 -5 9 C-4.5206753 4.68607774 -3.2542015 2.83430453 0 0 Z " fill="#153E4B" transform="translate(691,610)"/>
<path d="M0 0 C0.99 0 1.98 0 3 0 C3 0.66 3 1.32 3 2 C1.35 2.66 -0.3 3.32 -2 4 C-2 4.66 -2 5.32 -2 6 C-4.5 7.625 -4.5 7.625 -7 9 C-7.625 7.125 -7.625 7.125 -8 5 C-5.77077045 2.77077045 -3.90864722 2.11871047 -1 1 C-0.67 0.67 -0.34 0.34 0 0 Z " fill="#1C4650" transform="translate(720,593)"/>
<path d="M0 0 C0.66 0.33 1.32 0.66 2 1 C1.01 2.485 1.01 2.485 0 4 C-0.66 4 -1.32 4 -2 4 C-2 4.66 -2 5.32 -2 6 C-3.53125 7.5078125 -3.53125 7.5078125 -5.5 9.125 C-6.1496875 9.66382813 -6.799375 10.20265625 -7.46875 10.7578125 C-7.9740625 11.16773438 -8.479375 11.57765625 -9 12 C-9.66 11.67 -10.32 11.34 -11 11 C-7.82228249 6.82357127 -5.99634009 4.80423392 -1 3 C-0.67 2.01 -0.34 1.02 0 0 Z " fill="#3A626D" transform="translate(1011,700)"/>
<path d="M0 0 C0 2 0 2 -1.4609375 3.5078125 C-2.09257813 4.04148437 -2.72421875 4.57515625 -3.375 5.125 C-4.00148438 5.66382813 -4.62796875 6.20265625 -5.2734375 6.7578125 C-7 8 -7 8 -9 8 C-9 8.66 -9 9.32 -9 10 C-9.66 10 -10.32 10 -11 10 C-9.63088196 6.8510285 -8.1247864 4.9521513 -5.5 2.75 C-4.8915625 2.22921875 -4.283125 1.7084375 -3.65625 1.171875 C-2 0 -2 0 0 0 Z " fill="#2D5765" transform="translate(1000,712)"/>
<path d="M0 0 C3.25 0.125 3.25 0.125 7 1 C9.5 3.8125 9.5 3.8125 11 7 C10.75 9.375 10.75 9.375 10 11 C8.5393715 8.35261084 8 7.10551666 8 4 C7.05125 3.71125 6.1025 3.4225 5.125 3.125 C2 2 2 2 0 0 Z " fill="#346370" transform="translate(746,192)"/>
<path d="M0 0 C8.19256018 0.35010941 8.19256018 0.35010941 11.5625 3.0625 C12.036875 3.701875 12.51125 4.34125 13 5 C12.67 5.66 12.34 6.32 12 7 C11.55269531 6.65066406 11.10539062 6.30132813 10.64453125 5.94140625 C7.14976044 3.31101372 4.48721443 1.40792858 0 1 C0 0.67 0 0.34 0 0 Z " fill="#315E6B" transform="translate(1056,551)"/>
<path d="M0 0 C0.33 0.99 0.66 1.98 1 3 C-3.39453125 7.00390625 -3.39453125 7.00390625 -5 8 C-5.99 7.67 -6.98 7.34 -8 7 C-4.25 4 -4.25 4 -2 4 C-1.34 2.68 -0.68 1.36 0 0 Z " fill="#38606F" transform="translate(1027,686)"/>
<path d="M0 0 C2.25 0.25 2.25 0.25 4 1 C2.35 2.65 0.7 4.3 -1 6 C-1.99 5.34 -2.98 4.68 -4 4 C-2.25 1.9375 -2.25 1.9375 0 0 Z " fill="#295768" transform="translate(1050,665)"/>
<path d="M0 0 C0.33 0.66 0.66 1.32 1 2 C-1.31 4.64 -3.62 7.28 -6 10 C-6.66 9.67 -7.32 9.34 -8 9 C-6.38405168 6.95880212 -4.7143618 4.95927063 -3 3 C-2.34 3 -1.68 3 -1 3 C-0.67 2.01 -0.34 1.02 0 0 Z " fill="#A8B8C4" transform="translate(655,629)"/>
<path d="M0 0 C0.6875 1.8125 0.6875 1.8125 1 4 C-0.3125 5.75 -0.3125 5.75 -2 7 C-2.66 7 -3.32 7 -4 7 C-3.6875 4.625 -3.6875 4.625 -3 2 C-2.01 1.34 -1.02 0.68 0 0 Z " fill="#09476B" transform="translate(714,592)"/>
<path d="M0 0 C0.66 0 1.32 0 2 0 C1.67 2.31 1.34 4.62 1 7 C-0.32 7.33 -1.64 7.66 -3 8 C-2.690625 7.236875 -2.38125 6.47375 -2.0625 5.6875 C-1.32106407 3.81210323 -0.63771783 1.91315348 0 0 Z " fill="#4D7581" transform="translate(563,239)"/>
<path d="M0 0 C-4.75 4 -4.75 4 -7 4 C-7.33 3.01 -7.66 2.02 -8 1 C-4.93251126 -0.86240388 -3.40254489 -1.2151946 0 0 Z " fill="#224955" transform="translate(711,604)"/>
<path d="M0 0 C0.99 0.33 1.98 0.66 3 1 C2.01 2.485 2.01 2.485 1 4 C-0.32 4 -1.64 4 -3 4 C-3.33 4.66 -3.66 5.32 -4 6 C-4 5.01 -4 4.02 -4 3 C-2.1875 1.25 -2.1875 1.25 0 0 Z " fill="#2C545F" transform="translate(730,573)"/>
<path d="M0 0 C0.33 0.66 0.66 1.32 1 2 C-0.28965176 3.37562854 -1.62689293 4.70766393 -3 6 C-3.66 6 -4.32 6 -5 6 C-4.75 4.125 -4.75 4.125 -4 2 C-1.9375 0.75 -1.9375 0.75 0 0 Z " fill="#2B5A6A" transform="translate(772,553)"/>
<path d="M0 0 C0.66 0 1.32 0 2 0 C2 2.97 2 5.94 2 9 C1.34 9 0.68 9 0 9 C-1.15941038 5.52176885 -0.70820884 3.54104422 0 0 Z " fill="#34616F" transform="translate(559,249)"/>
<path d="M0 0 C0 0.99 0 1.98 0 3 C-4.34285714 7 -4.34285714 7 -7 7 C-5.66667905 3.00003714 -3.5042173 2.16217663 0 0 Z " fill="#618691" transform="translate(572,232)"/>
<path d="M0 0 C0 0.99 0 1.98 0 3 C-2.5 5.1875 -2.5 5.1875 -5 7 C-5.66 6.67 -6.32 6.34 -7 6 C-2.25 1.125 -2.25 1.125 0 0 Z " fill="#1B4C5C" transform="translate(612,191)"/>
</svg>
